<?xml version="1.0" encoding="UTF-8" standalone="no"?><!DOCTYPE svg PUBLIC "-//W3C//DTD SVG 1.1//EN" "http://www.w3.org/Graphics/SVG/1.1/DTD/svg11.dtd"><svg width="100%" height="100%" viewBox="0 0 709 254" version="1.1" xmlns="http://www.w3.org/2000/svg" xmlns:xlink="http://www.w3.org/1999/xlink" xml:space="preserve" style="fill-rule:evenodd;clip-rule:evenodd;stroke-linejoin:round;stroke-miterlimit:1.41421;"><rect id="Blue-w--100--white-outline" x="0" y="0" width="708.759" height="253.946" style="fill:none;"/><g id="Blue-w--100--white-outline1" transform="matrix(1,0,0,1,-256.777,-103.436)"><path d="M322.804,244.461c6.768,7.488 14.256,16.848 23.76,29.808c0.864,1.296 1.584,0.864 2.304,-0.288c1.872,-2.88 1.296,-7.776 -0.72,-11.664c-3.024,-6.048 -8.208,-12.96 -13.68,-19.728c15.984,-3.744 31.536,-12.816 39.312,-23.184c5.472,-7.344 7.488,-16.128 4.464,-24.768c-3.456,-9.792 -9.792,-11.952 -17.136,-11.664c-9.648,0.432 -20.448,6.336 -32.544,7.776c-1.872,0.288 -2.304,1.008 -1.584,2.448c1.728,3.168 4.32,5.328 9.216,5.76c-12.672,19.872 -26.208,47.232 -29.808,60.336c-2.16,7.776 -0.72,12.096 1.296,14.256c1.008,1.008 1.728,0.864 2.304,-0.576c4.752,-11.808 8.928,-20.88 12.816,-28.512Zm22.176,-46.368c9.504,-2.592 23.904,-10.08 27.072,-2.016c4.176,10.224 -12.096,31.248 -43.92,38.304c3.888,-7.056 7.488,-13.104 11.376,-20.016c3.888,-7.2 5.472,-12.24 5.472,-16.272Z" style="fill:none;"/><path d="M408.196,225.741c0.288,-5.616 -2.592,-10.368 -8.784,-10.368c-7.2,0 -18.576,6.48 -30.24,23.472c-11.952,17.424 -9.216,35.712 4.176,35.712c6.912,0 13.392,-5.328 18,-11.232c0,6.768 4.032,11.376 11.808,11.808c7.92,0.432 16.992,-7.488 20.736,-15.408c1.872,-4.032 1.872,-7.632 1.296,-8.928c-0.576,-1.296 -1.584,-1.152 -2.304,0.144c-5.04,9.936 -12.96,19.728 -18.864,20.016c-4.896,0.288 -4.752,-5.904 -1.152,-13.968c3.456,-7.632 10.656,-18.432 13.824,-24.912c3.456,-7.2 2.304,-13.392 0.144,-15.984c-1.008,-1.296 -2.16,-1.008 -3.456,0.864c-1.584,2.304 -3.312,5.328 -5.184,8.784Zm-12.528,22.32c-7.344,12.672 -14.832,21.888 -20.736,21.744c-5.616,-0.144 -3.744,-12.816 3.888,-25.2c7.92,-12.816 18.432,-22.176 23.04,-21.744c4.176,0.432 2.88,9.36 -6.192,25.2Z" style="fill:none;"/><path d="M453.268,206.157c-1.728,-4.032 -5.904,-5.76 -8.208,-3.168c-2.16,2.448 -2.88,6.48 -0.72,10.368c2.16,3.888 6.192,4.32 8.064,2.16c1.728,-2.016 2.592,-5.472 0.864,-9.36Zm-31.824,69.12c6.336,-14.256 16.704,-33.984 20.304,-42.048c3.312,-7.2 2.592,-13.392 0.432,-15.84c-1.152,-1.296 -2.16,-1.152 -3.456,0.864c-7.632,11.664 -20.592,38.448 -30.384,61.92c-14.256,5.472 -26.784,14.256 -31.248,27.36c-2.88,8.352 0.432,13.536 3.312,17.856c2.736,4.032 5.616,3.744 8.208,2.736c11.376,-4.32 22.032,-27.648 30.24,-46.8c12.96,-5.472 24.336,-12.24 29.952,-22.176c2.16,-3.744 2.592,-7.056 2.16,-8.496c-0.432,-1.44 -1.584,-1.296 -2.304,-0.144c-6.048,8.928 -13.968,17.856 -27.216,24.768Zm-15.552,10.944c-9.072,21.168 -20.592,36.72 -22.608,34.128c-2.592,-3.456 3.888,-23.472 22.608,-34.128Z" style="fill:none;"/><path d="M492.436,225.741c0.288,-5.616 -2.592,-10.368 -8.784,-10.368c-7.2,0 -18.576,6.48 -30.24,23.472c-11.952,17.424 -9.216,35.712 4.176,35.712c6.912,0 13.392,-5.328 18,-11.232c0,6.768 4.032,11.376 11.808,11.808c7.92,0.432 16.992,-7.488 20.736,-15.408c1.872,-4.032 1.872,-7.632 1.296,-8.928c-0.576,-1.296 -1.584,-1.152 -2.304,0.144c-5.04,9.936 -12.96,19.728 -18.864,20.016c-4.896,0.288 -4.752,-5.904 -1.152,-13.968c3.456,-7.632 10.656,-18.432 13.824,-24.912c3.456,-7.2 2.304,-13.392 0.144,-15.984c-1.008,-1.296 -2.16,-1.008 -3.456,0.864c-1.584,2.304 -3.312,5.328 -5.184,8.784Zm-12.528,22.32c-7.344,12.672 -14.832,21.888 -20.736,21.744c-5.616,-0.144 -3.744,-12.816 3.888,-25.2c7.92,-12.816 18.432,-22.176 23.04,-21.744c4.176,0.432 2.88,9.36 -6.192,25.2Z" style="fill:none;"/><path d="M575.812,196.941c-13.392,20.304 -28.944,51.552 -32.256,63.36c-1.872,6.912 -0.144,11.232 1.872,13.104c1.008,1.008 1.728,1.008 2.304,-0.432c11.232,-26.352 23.472,-46.512 32.112,-62.208c3.888,-7.056 4.896,-11.808 4.752,-15.264c8.352,-1.44 17.424,-2.88 24.48,-2.16c1.872,0.144 2.16,-1.008 1.728,-2.16c-2.16,-5.616 -7.632,-7.2 -13.68,-7.344c-8.208,-0.288 -32.112,5.04 -44.928,4.032c-1.44,-0.144 -2.016,0.576 -1.584,1.872c1.584,5.328 7.776,8.496 16.416,8.208c2.592,-0.144 5.472,-0.432 8.784,-1.008Z" style="fill:none;"/><path d="M596.26,227.037c3.6,-9.072 4.752,-17.424 0.288,-17.28c-5.328,0.144 -17.856,17.136 -9.648,22.464c-5.328,7.632 -14.976,21.168 -18.288,27.504c-3.888,7.344 -3.888,13.968 0.288,18.288c1.296,1.296 2.16,0.576 2.448,-0.72c2.736,-13.104 16.56,-33.552 22.032,-43.632c4.32,0 10.512,-1.296 16.848,-5.472c-5.76,6.624 -14.112,16.848 -17.28,26.352c-3.6,10.8 0.576,20.304 10.944,20.736c7.632,0.288 15.984,-5.76 19.296,-14.112c1.584,-3.888 1.44,-7.344 0.72,-8.928c-0.576,-1.152 -1.44,-1.008 -2.016,0.144c-4.608,10.368 -11.52,19.296 -17.136,19.008c-4.176,-0.144 -5.904,-5.76 -3.6,-13.248c2.304,-7.488 9.36,-16.56 15.84,-23.904c4.176,-4.752 0.72,-11.088 -2.016,-14.112c-1.008,-1.152 -2.16,-0.864 -3.888,0.288c-5.328,3.744 -10.224,6.048 -14.832,6.624Z" style="fill:none;"/><path d="M648.244,260.877c-1.152,8.352 2.592,14.256 11.952,14.256c8.496,0 17.424,-7.344 21.6,-15.408c2.016,-4.032 1.872,-7.92 1.296,-9.072c-0.576,-1.296 -1.872,-1.152 -2.592,0.144c-5.616,10.08 -12.96,19.584 -19.008,19.872c-5.184,0.288 -5.76,-5.76 -2.016,-13.968c3.312,-7.344 10.512,-18.144 13.68,-24.624c3.456,-7.2 2.304,-13.536 0.144,-16.128c-1.152,-1.44 -2.16,-1.152 -3.6,0.864c-4.608,6.192 -8.784,16.128 -17.856,30.816c-7.776,12.528 -15.696,22.608 -21.312,22.176c-3.312,-0.288 -3.744,-5.472 -0.72,-12.528c3.024,-6.912 5.904,-12.672 11.232,-21.168c5.184,-8.208 5.904,-14.688 2.736,-19.44c-1.152,-1.296 -2.592,-1.44 -3.744,0.144c-9.36,13.104 -16.704,27.216 -19.872,36.72c-3.168,9.504 -2.88,20.16 7.344,20.88c8.064,0.576 15.696,-6.768 20.736,-13.536Z" style="fill:none;"/><path d="M712.756,216.957c-7.2,-4.32 -21.744,3.456 -30.96,21.6c-9.36,18.576 -3.168,36.432 15.12,36.144c10.944,-0.144 22.32,-7.2 27.792,-15.696c2.448,-3.888 3.024,-7.488 2.592,-8.64c-0.576,-1.44 -1.872,-1.296 -2.592,-0.144c-5.904,9.072 -16.272,20.592 -28.368,20.448c-8.496,-0.144 -11.52,-12.096 -3.6,-28.368c6.48,-13.104 17.28,-22.32 19.728,-20.304c2.016,1.584 -2.304,7.776 -3.888,12.96c-2.016,6.48 0,10.8 3.456,12.528c1.872,1.008 2.448,0.576 3.024,-1.152c2.88,-7.776 8.64,-15.408 5.616,-21.456c-1.728,-3.312 -4.032,-5.616 -7.92,-7.92Z" style="fill:none;"/><path d="M748.18,222.573c3.888,-7.056 9.504,-17.136 12.96,-23.04c6.048,-10.512 6.336,-16.272 4.176,-20.592c-0.864,-1.728 -2.304,-1.584 -3.6,0.144c-12.816,17.424 -36.72,64.8 -40.752,77.904c-2.736,8.784 -2.016,13.392 0.144,15.84c1.008,1.152 2.16,0.864 2.592,-0.288c11.088,-26.496 17.568,-39.168 28.368,-47.376c7.632,-5.904 13.968,-7.488 15.552,-4.896c2.16,3.744 -7.344,16.272 -25.2,22.176c-2.736,0.864 -3.024,1.296 -3.024,3.888c-0.288,19.44 8.208,27.648 18.288,27.792c11.376,0.144 18,-9.072 21.456,-15.12c2.16,-3.6 2.448,-7.056 1.728,-8.784c-0.72,-1.728 -2.016,-1.584 -2.88,0.144c-4.32,8.928 -12.24,20.016 -18.144,19.44c-5.472,-0.576 -9.504,-8.784 -10.08,-20.592c9.072,-2.736 15.12,-6.912 20.016,-11.664c5.328,-5.184 5.76,-11.232 3.024,-16.848c-2.88,-6.048 -6.336,-8.208 -11.808,-6.336c-3.744,1.296 -8.208,3.744 -12.816,8.208Z" style="fill:none;"/><path d="M808.228,206.445c-1.872,-3.888 -6.048,-5.616 -8.352,-3.168c-2.304,2.448 -3.024,6.768 -0.72,10.656c2.16,3.744 6.192,4.176 8.064,2.16c1.872,-2.016 2.88,-5.904 1.008,-9.648Zm-23.472,68.256c8.064,0 17.136,-6.048 21.456,-14.976c1.728,-3.6 2.16,-6.624 1.008,-8.928c-0.576,-1.152 -1.584,-1.296 -2.304,0c-4.32,9.936 -12.24,19.44 -18.72,19.728c-4.608,0.288 -4.896,-5.328 -1.44,-13.68c3.024,-7.2 9.072,-16.992 12.096,-23.328c3.456,-7.2 2.304,-13.392 0.144,-15.696c-1.152,-1.296 -2.16,-0.864 -3.456,0.864c-5.328,7.488 -14.832,24.48 -18.432,34.992c-4.032,11.808 -1.296,21.024 9.648,21.024Z" style="fill:none;"/><path d="M826.804,230.205c1.584,-5.184 1.728,-10.08 -0.432,-13.68c-0.864,-1.44 -2.016,-1.584 -3.024,0c-9.072,13.392 -20.16,33.408 -23.04,42.48c-2.304,7.2 -1.44,11.952 1.44,14.832c1.296,1.296 2.16,0.72 2.736,-0.576c6.192,-13.536 12.528,-27.36 21.024,-36.576c9.216,-10.08 17.568,-14.112 19.008,-13.536c2.592,1.152 -10.08,16.416 -14.832,30.528c-4.176,12.528 -1.296,21.456 10.944,21.456c8.352,0 17.424,-7.344 21.312,-15.408c2.016,-4.176 2.304,-7.488 1.296,-9.072c-0.72,-1.152 -1.728,-1.152 -2.448,0.144c-5.472,10.08 -12.528,19.584 -18.432,19.872c-5.184,0.288 -6.048,-6.48 -2.304,-14.832c3.312,-7.488 10.368,-18.144 13.392,-24.48c3.6,-7.488 -0.864,-14.544 -5.616,-15.264c-4.752,-0.72 -14.544,7.2 -21.024,14.112Z" style="fill:none;"/><path d="M918.532,259.581c2.448,-3.888 3.168,-7.056 2.88,-8.352c-0.288,-1.44 -1.584,-1.44 -2.448,-0.288c-5.76,7.632 -13.68,15.552 -25.776,21.6c6.048,-13.968 15.12,-31.392 19.44,-40.032c3.6,-7.056 2.448,-13.248 0.288,-15.84c-1.008,-1.296 -2.448,-1.152 -3.6,0.864c-1.44,2.448 -3.024,5.04 -4.752,7.92c0.144,-5.04 -2.736,-9.504 -8.496,-9.504c-7.344,0 -19.008,6.48 -30.24,23.184c-11.664,17.28 -9.072,35.28 4.176,35.28c5.328,0 10.368,-3.024 14.544,-7.2c-1.44,3.312 -2.736,6.768 -4.176,9.936c-14.256,5.472 -26.64,14.256 -30.816,27.216c-2.736,8.496 -0.144,13.536 2.88,17.856c2.592,3.744 5.472,4.176 8.352,3.024c11.664,-4.608 21.888,-27.504 29.808,-46.8c11.952,-4.32 22.32,-10.08 27.936,-18.864Zm-26.496,-11.232c-7.344,12.672 -14.688,21.744 -20.304,21.6c-5.76,-0.144 -4.176,-12.816 3.6,-25.2c7.92,-12.528 18.432,-21.744 22.896,-21.456c4.176,0.288 2.88,9.216 -6.192,25.056Zm-14.112,34.704c-9.36,21.888 -20.736,36.864 -22.608,34.128c-2.448,-3.456 3.888,-23.184 22.608,-34.128Z" style="fill:none;"/><path d="M322.804,244.461c6.768,7.488 14.256,16.848 23.76,29.808c0.864,1.296 1.584,0.864 2.304,-0.288c1.872,-2.88 1.296,-7.776 -0.72,-11.664c-3.024,-6.048 -8.208,-12.96 -13.68,-19.728c15.984,-3.744 31.536,-12.816 39.312,-23.184c5.472,-7.344 7.488,-16.128 4.464,-24.768c-3.456,-9.792 -9.792,-11.952 -17.136,-11.664c-9.648,0.432 -20.448,6.336 -32.544,7.776c-1.872,0.288 -2.304,1.008 -1.584,2.448c1.728,3.168 4.32,5.328 9.216,5.76c-12.672,19.872 -26.208,47.232 -29.808,60.336c-2.16,7.776 -0.72,12.096 1.296,14.256c1.008,1.008 1.728,0.864 2.304,-0.576c4.752,-11.808 8.928,-20.88 12.816,-28.512Zm22.176,-46.368c9.504,-2.592 23.904,-10.08 27.072,-2.016c4.176,10.224 -12.096,31.248 -43.92,38.304c3.888,-7.056 7.488,-13.104 11.376,-20.016c3.888,-7.2 5.472,-12.24 5.472,-16.272Z" style="fill:#1eaedb;fill-rule:nonzero;stroke:#fff;stroke-width:1px;"/><path d="M408.196,225.741c0.288,-5.616 -2.592,-10.368 -8.784,-10.368c-7.2,0 -18.576,6.48 -30.24,23.472c-11.952,17.424 -9.216,35.712 4.176,35.712c6.912,0 13.392,-5.328 18,-11.232c0,6.768 4.032,11.376 11.808,11.808c7.92,0.432 16.992,-7.488 20.736,-15.408c1.872,-4.032 1.872,-7.632 1.296,-8.928c-0.576,-1.296 -1.584,-1.152 -2.304,0.144c-5.04,9.936 -12.96,19.728 -18.864,20.016c-4.896,0.288 -4.752,-5.904 -1.152,-13.968c3.456,-7.632 10.656,-18.432 13.824,-24.912c3.456,-7.2 2.304,-13.392 0.144,-15.984c-1.008,-1.296 -2.16,-1.008 -3.456,0.864c-1.584,2.304 -3.312,5.328 -5.184,8.784Zm-12.528,22.32c-7.344,12.672 -14.832,21.888 -20.736,21.744c-5.616,-0.144 -3.744,-12.816 3.888,-25.2c7.92,-12.816 18.432,-22.176 23.04,-21.744c4.176,0.432 2.88,9.36 -6.192,25.2Z" style="fill:#1eaedb;fill-rule:nonzero;stroke:#fff;stroke-width:1px;"/><path d="M453.268,206.157c-1.728,-4.032 -5.904,-5.76 -8.208,-3.168c-2.16,2.448 -2.88,6.48 -0.72,10.368c2.16,3.888 6.192,4.32 8.064,2.16c1.728,-2.016 2.592,-5.472 0.864,-9.36Zm-31.824,69.12c6.336,-14.256 16.704,-33.984 20.304,-42.048c3.312,-7.2 2.592,-13.392 0.432,-15.84c-1.152,-1.296 -2.16,-1.152 -3.456,0.864c-7.632,11.664 -20.592,38.448 -30.384,61.92c-14.256,5.472 -26.784,14.256 -31.248,27.36c-2.88,8.352 0.432,13.536 3.312,17.856c2.736,4.032 5.616,3.744 8.208,2.736c11.376,-4.32 22.032,-27.648 30.24,-46.8c12.96,-5.472 24.336,-12.24 29.952,-22.176c2.16,-3.744 2.592,-7.056 2.16,-8.496c-0.432,-1.44 -1.584,-1.296 -2.304,-0.144c-6.048,8.928 -13.968,17.856 -27.216,24.768Zm-15.552,10.944c-9.072,21.168 -20.592,36.72 -22.608,34.128c-2.592,-3.456 3.888,-23.472 22.608,-34.128Z" style="fill:#1eaedb;fill-rule:nonzero;stroke:#fff;stroke-width:1px;"/><path d="M492.436,225.741c0.288,-5.616 -2.592,-10.368 -8.784,-10.368c-7.2,0 -18.576,6.48 -30.24,23.472c-11.952,17.424 -9.216,35.712 4.176,35.712c6.912,0 13.392,-5.328 18,-11.232c0,6.768 4.032,11.376 11.808,11.808c7.92,0.432 16.992,-7.488 20.736,-15.408c1.872,-4.032 1.872,-7.632 1.296,-8.928c-0.576,-1.296 -1.584,-1.152 -2.304,0.144c-5.04,9.936 -12.96,19.728 -18.864,20.016c-4.896,0.288 -4.752,-5.904 -1.152,-13.968c3.456,-7.632 10.656,-18.432 13.824,-24.912c3.456,-7.2 2.304,-13.392 0.144,-15.984c-1.008,-1.296 -2.16,-1.008 -3.456,0.864c-1.584,2.304 -3.312,5.328 -5.184,8.784Zm-12.528,22.32c-7.344,12.672 -14.832,21.888 -20.736,21.744c-5.616,-0.144 -3.744,-12.816 3.888,-25.2c7.92,-12.816 18.432,-22.176 23.04,-21.744c4.176,0.432 2.88,9.36 -6.192,25.2Z" style="fill:#1eaedb;fill-rule:nonzero;stroke:#fff;stroke-width:1px;"/><path d="M575.812,196.941c-13.392,20.304 -28.944,51.552 -32.256,63.36c-1.872,6.912 -0.144,11.232 1.872,13.104c1.008,1.008 1.728,1.008 2.304,-0.432c11.232,-26.352 23.472,-46.512 32.112,-62.208c3.888,-7.056 4.896,-11.808 4.752,-15.264c8.352,-1.44 17.424,-2.88 24.48,-2.16c1.872,0.144 2.16,-1.008 1.728,-2.16c-2.16,-5.616 -7.632,-7.2 -13.68,-7.344c-8.208,-0.288 -32.112,5.04 -44.928,4.032c-1.44,-0.144 -2.016,0.576 -1.584,1.872c1.584,5.328 7.776,8.496 16.416,8.208c2.592,-0.144 5.472,-0.432 8.784,-1.008Z" style="fill:#1eaedb;fill-rule:nonzero;stroke:#fff;stroke-width:1px;"/><path d="M596.26,227.037c3.6,-9.072 4.752,-17.424 0.288,-17.28c-5.328,0.144 -17.856,17.136 -9.648,22.464c-5.328,7.632 -14.976,21.168 -18.288,27.504c-3.888,7.344 -3.888,13.968 0.288,18.288c1.296,1.296 2.16,0.576 2.448,-0.72c2.736,-13.104 16.56,-33.552 22.032,-43.632c4.32,0 10.512,-1.296 16.848,-5.472c-5.76,6.624 -14.112,16.848 -17.28,26.352c-3.6,10.8 0.576,20.304 10.944,20.736c7.632,0.288 15.984,-5.76 19.296,-14.112c1.584,-3.888 1.44,-7.344 0.72,-8.928c-0.576,-1.152 -1.44,-1.008 -2.016,0.144c-4.608,10.368 -11.52,19.296 -17.136,19.008c-4.176,-0.144 -5.904,-5.76 -3.6,-13.248c2.304,-7.488 9.36,-16.56 15.84,-23.904c4.176,-4.752 0.72,-11.088 -2.016,-14.112c-1.008,-1.152 -2.16,-0.864 -3.888,0.288c-5.328,3.744 -10.224,6.048 -14.832,6.624Z" style="fill:#1eaedb;fill-rule:nonzero;stroke:#fff;stroke-width:1px;"/><path d="M648.244,260.877c-1.152,8.352 2.592,14.256 11.952,14.256c8.496,0 17.424,-7.344 21.6,-15.408c2.016,-4.032 1.872,-7.92 1.296,-9.072c-0.576,-1.296 -1.872,-1.152 -2.592,0.144c-5.616,10.08 -12.96,19.584 -19.008,19.872c-5.184,0.288 -5.76,-5.76 -2.016,-13.968c3.312,-7.344 10.512,-18.144 13.68,-24.624c3.456,-7.2 2.304,-13.536 0.144,-16.128c-1.152,-1.44 -2.16,-1.152 -3.6,0.864c-4.608,6.192 -8.784,16.128 -17.856,30.816c-7.776,12.528 -15.696,22.608 -21.312,22.176c-3.312,-0.288 -3.744,-5.472 -0.72,-12.528c3.024,-6.912 5.904,-12.672 11.232,-21.168c5.184,-8.208 5.904,-14.688 2.736,-19.44c-1.152,-1.296 -2.592,-1.44 -3.744,0.144c-9.36,13.104 -16.704,27.216 -19.872,36.72c-3.168,9.504 -2.88,20.16 7.344,20.88c8.064,0.576 15.696,-6.768 20.736,-13.536Z" style="fill:#1eaedb;fill-rule:nonzero;stroke:#fff;stroke-width:1px;"/><path d="M712.756,216.957c-7.2,-4.32 -21.744,3.456 -30.96,21.6c-9.36,18.576 -3.168,36.432 15.12,36.144c10.944,-0.144 22.32,-7.2 27.792,-15.696c2.448,-3.888 3.024,-7.488 2.592,-8.64c-0.576,-1.44 -1.872,-1.296 -2.592,-0.144c-5.904,9.072 -16.272,20.592 -28.368,20.448c-8.496,-0.144 -11.52,-12.096 -3.6,-28.368c6.48,-13.104 17.28,-22.32 19.728,-20.304c2.016,1.584 -2.304,7.776 -3.888,12.96c-2.016,6.48 0,10.8 3.456,12.528c1.872,1.008 2.448,0.576 3.024,-1.152c2.88,-7.776 8.64,-15.408 5.616,-21.456c-1.728,-3.312 -4.032,-5.616 -7.92,-7.92Z" style="fill:#1eaedb;fill-rule:nonzero;stroke:#fff;stroke-width:1px;"/><path d="M748.18,222.573c3.888,-7.056 9.504,-17.136 12.96,-23.04c6.048,-10.512 6.336,-16.272 4.176,-20.592c-0.864,-1.728 -2.304,-1.584 -3.6,0.144c-12.816,17.424 -36.72,64.8 -40.752,77.904c-2.736,8.784 -2.016,13.392 0.144,15.84c1.008,1.152 2.16,0.864 2.592,-0.288c11.088,-26.496 17.568,-39.168 28.368,-47.376c7.632,-5.904 13.968,-7.488 15.552,-4.896c2.16,3.744 -7.344,16.272 -25.2,22.176c-2.736,0.864 -3.024,1.296 -3.024,3.888c-0.288,19.44 8.208,27.648 18.288,27.792c11.376,0.144 18,-9.072 21.456,-15.12c2.16,-3.6 2.448,-7.056 1.728,-8.784c-0.72,-1.728 -2.016,-1.584 -2.88,0.144c-4.32,8.928 -12.24,20.016 -18.144,19.44c-5.472,-0.576 -9.504,-8.784 -10.08,-20.592c9.072,-2.736 15.12,-6.912 20.016,-11.664c5.328,-5.184 5.76,-11.232 3.024,-16.848c-2.88,-6.048 -6.336,-8.208 -11.808,-6.336c-3.744,1.296 -8.208,3.744 -12.816,8.208Z" style="fill:#1eaedb;fill-rule:nonzero;stroke:#fff;stroke-width:1px;"/><path d="M808.228,206.445c-1.872,-3.888 -6.048,-5.616 -8.352,-3.168c-2.304,2.448 -3.024,6.768 -0.72,10.656c2.16,3.744 6.192,4.176 8.064,2.16c1.872,-2.016 2.88,-5.904 1.008,-9.648Zm-23.472,68.256c8.064,0 17.136,-6.048 21.456,-14.976c1.728,-3.6 2.16,-6.624 1.008,-8.928c-0.576,-1.152 -1.584,-1.296 -2.304,0c-4.32,9.936 -12.24,19.44 -18.72,19.728c-4.608,0.288 -4.896,-5.328 -1.44,-13.68c3.024,-7.2 9.072,-16.992 12.096,-23.328c3.456,-7.2 2.304,-13.392 0.144,-15.696c-1.152,-1.296 -2.16,-0.864 -3.456,0.864c-5.328,7.488 -14.832,24.48 -18.432,34.992c-4.032,11.808 -1.296,21.024 9.648,21.024Z" style="fill:#1eaedb;fill-rule:nonzero;stroke:#fff;stroke-width:1px;"/><path d="M826.804,230.205c1.584,-5.184 1.728,-10.08 -0.432,-13.68c-0.864,-1.44 -2.016,-1.584 -3.024,0c-9.072,13.392 -20.16,33.408 -23.04,42.48c-2.304,7.2 -1.44,11.952 1.44,14.832c1.296,1.296 2.16,0.72 2.736,-0.576c6.192,-13.536 12.528,-27.36 21.024,-36.576c9.216,-10.08 17.568,-14.112 19.008,-13.536c2.592,1.152 -10.08,16.416 -14.832,30.528c-4.176,12.528 -1.296,21.456 10.944,21.456c8.352,0 17.424,-7.344 21.312,-15.408c2.016,-4.176 2.304,-7.488 1.296,-9.072c-0.72,-1.152 -1.728,-1.152 -2.448,0.144c-5.472,10.08 -12.528,19.584 -18.432,19.872c-5.184,0.288 -6.048,-6.48 -2.304,-14.832c3.312,-7.488 10.368,-18.144 13.392,-24.48c3.6,-7.488 -0.864,-14.544 -5.616,-15.264c-4.752,-0.72 -14.544,7.2 -21.024,14.112Z" style="fill:#1eaedb;fill-rule:nonzero;stroke:#fff;stroke-width:1px;"/><path d="M918.532,259.581c2.448,-3.888 3.168,-7.056 2.88,-8.352c-0.288,-1.44 -1.584,-1.44 -2.448,-0.288c-5.76,7.632 -13.68,15.552 -25.776,21.6c6.048,-13.968 15.12,-31.392 19.44,-40.032c3.6,-7.056 2.448,-13.248 0.288,-15.84c-1.008,-1.296 -2.448,-1.152 -3.6,0.864c-1.44,2.448 -3.024,5.04 -4.752,7.92c0.144,-5.04 -2.736,-9.504 -8.496,-9.504c-7.344,0 -19.008,6.48 -30.24,23.184c-11.664,17.28 -9.072,35.28 4.176,35.28c5.328,0 10.368,-3.024 14.544,-7.2c-1.44,3.312 -2.736,6.768 -4.176,9.936c-14.256,5.472 -26.64,14.256 -30.816,27.216c-2.736,8.496 -0.144,13.536 2.88,17.856c2.592,3.744 5.472,4.176 8.352,3.024c11.664,-4.608 21.888,-27.504 29.808,-46.8c11.952,-4.32 22.32,-10.08 27.936,-18.864Zm-26.496,-11.232c-7.344,12.672 -14.688,21.744 -20.304,21.6c-5.76,-0.144 -4.176,-12.816 3.6,-25.2c7.92,-12.528 18.432,-21.744 22.896,-21.456c4.176,0.288 2.88,9.216 -6.192,25.056Zm-14.112,34.704c-9.36,21.888 -20.736,36.864 -22.608,34.128c-2.448,-3.456 3.888,-23.184 22.608,-34.128Z" style="fill:#1eaedb;fill-rule:nonzero;stroke:#fff;stroke-width:1px;"/></g></svg>