<?xml version="1.0" encoding="UTF-8" standalone="no"?><!DOCTYPE svg PUBLIC "-//W3C//DTD SVG 1.1//EN" "http://www.w3.org/Graphics/SVG/1.1/DTD/svg11.dtd"><svg width="100%" height="100%" viewBox="0 0 709 254" version="1.1" xmlns="http://www.w3.org/2000/svg" xmlns:xlink="http://www.w3.org/1999/xlink" xml:space="preserve" style="fill-rule:evenodd;clip-rule:evenodd;stroke-linejoin:round;stroke-miterlimit:1.41421;"><rect id="Black-w--20--white-outline" x="0" y="0" width="708.759" height="253.946" style="fill:none;"/><g id="Black-w--20--white-outline1" transform="matrix(1,0,0,1,-252.494,-111.332)"><path d="M349.732,273.549c0.864,-1.44 1.44,-3.168 1.44,-4.896c0,-2.304 -0.72,-5.04 -2.016,-7.488c-2.736,-5.328 -7.632,-12.24 -12.816,-18.432c15.696,-4.032 30.528,-12.816 37.872,-22.752c5.328,-7.344 8.352,-15.552 4.464,-25.2c-3.6,-9.072 -10.656,-12.24 -18.288,-11.952c-5.328,0.288 -10.368,1.728 -15.84,3.456c-5.184,1.728 -10.656,3.312 -16.416,4.176c-3.024,0.432 -3.744,1.584 -2.592,3.6c1.728,3.024 3.744,5.04 8.496,5.904c-12.672,19.728 -25.344,45.936 -28.944,58.464c-0.72,2.592 -1.008,5.184 -1.008,7.2c0,3.6 1.152,5.904 2.736,7.632c2.16,2.16 3.744,1.872 4.752,-0.864c4.32,-10.656 8.064,-18.864 11.664,-25.92c5.76,6.48 12.672,15.696 21.6,27.504c1.728,2.304 3.312,2.016 4.896,-0.432Zm2.016,-76.32c4.608,-1.584 10.08,-3.456 13.392,-3.456c2.16,0 3.744,0.72 4.608,3.024c3.744,9.504 -10.368,28.512 -39.168,35.856c2.592,-4.464 6.192,-10.512 10.08,-17.712c3.6,-6.768 5.328,-11.808 5.472,-15.84l5.616,-1.872Z" style="fill:none;"/><path d="M368.164,238.413c-5.184,7.2 -7.776,15.264 -7.776,21.456c0,8.496 4.608,14.688 13.104,14.688c5.76,0 12.24,-4.464 16.416,-8.496c1.152,5.328 5.328,9.072 12.528,9.072c8.784,0 18,-7.632 21.744,-15.552c2.016,-4.176 1.152,-8.064 0.576,-9.36c-1.44,-3.024 -2.736,-2.88 -4.32,0c-4.752,9.36 -11.952,19.152 -17.136,19.152c-1.44,0 -2.016,-1.296 -2.016,-3.456c0,-9.648 12.096,-25.344 15.84,-33.264c3.744,-7.488 2.448,-13.824 0,-16.704c-1.728,-2.016 -4.176,-1.872 -5.904,1.008l-2.736,4.464c-1.296,-3.744 -4.464,-6.336 -9.648,-6.336c-7.344,0 -19.152,6.768 -30.672,23.328Zm7.2,29.808c-1.44,0 -2.016,-1.728 -2.016,-4.32c0,-4.608 2.448,-12.24 6.768,-19.008c7.344,-11.808 17.28,-20.88 20.16,-20.88c1.44,0 1.728,1.008 1.728,2.736c0,3.744 -2.592,10.8 -8.208,20.592c-7.056,12.096 -13.68,20.88 -18.432,20.88Z" style="fill:none;"/><path d="M454.42,205.869c-2.16,-4.896 -7.488,-6.768 -10.512,-3.312c-1.584,1.584 -2.448,3.6 -2.448,5.904c0,1.584 0.432,3.456 1.44,5.184c2.592,4.752 7.92,5.04 10.368,2.16c1.296,-1.44 2.304,-3.456 2.304,-5.616c0,-1.296 -0.288,-2.88 -1.152,-4.464l0,0.144Zm-11.808,27.648c1.728,-3.456 2.304,-6.768 2.304,-9.504c0,-2.88 -0.72,-5.184 -2.16,-6.768c-2.016,-2.016 -3.888,-1.872 -5.76,1.008c-7.632,11.808 -20.448,37.872 -29.664,60.336c-14.112,5.472 -26.496,14.4 -30.672,26.928c-0.864,2.592 -1.296,4.752 -1.296,6.336c0,4.752 2.592,10.08 4.608,13.104c3.168,4.32 6.768,4.464 9.936,3.168c11.52,-5.184 22.32,-28.8 30.24,-47.232c12.528,-5.472 24.048,-12.24 29.376,-21.888c2.16,-3.888 2.592,-7.488 2.16,-8.928c-1.008,-3.168 -3.456,-2.736 -5.04,-0.288c-5.328,7.776 -12.24,15.84 -22.608,22.032c3.312,-7.344 7.488,-15.696 11.232,-23.184c3.168,-6.192 5.76,-11.664 7.344,-15.12Zm-38.016,52.992c-3.744,7.056 -7.056,13.536 -9.936,18.72c-5.616,10.08 -9.504,15.84 -10.8,14.112c-1.584,-2.016 0.288,-9.36 5.616,-17.424c3.456,-5.328 8.496,-10.944 15.12,-15.408Z" style="fill:none;"/><path d="M452.404,238.413c-5.184,7.2 -7.776,15.264 -7.776,21.456c0,8.496 4.608,14.688 13.104,14.688c5.76,0 12.24,-4.464 16.416,-8.496c1.152,5.328 5.328,9.072 12.528,9.072c8.784,0 18,-7.632 21.744,-15.552c2.016,-4.176 1.152,-8.064 0.576,-9.36c-1.44,-3.024 -2.736,-2.88 -4.32,0c-4.752,9.36 -11.952,19.152 -17.136,19.152c-1.44,0 -2.016,-1.296 -2.016,-3.456c0,-9.648 12.096,-25.344 15.84,-33.264c3.744,-7.488 2.448,-13.824 0,-16.704c-1.728,-2.016 -4.176,-1.872 -5.904,1.008l-2.736,4.464c-1.296,-3.744 -4.464,-6.336 -9.648,-6.336c-7.344,0 -19.152,6.768 -30.672,23.328Zm7.2,29.808c-1.44,0 -2.016,-1.728 -2.016,-4.32c0,-4.608 2.448,-12.24 6.768,-19.008c7.344,-11.808 17.28,-20.88 20.16,-20.88c1.44,0 1.728,1.008 1.728,2.736c0,3.744 -2.592,10.8 -8.208,20.592c-7.056,12.096 -13.68,20.88 -18.432,20.88Z" style="fill:none;"/><path d="M541.396,265.197c0,3.6 0.864,5.904 3.024,7.92c2.016,2.016 3.744,1.872 4.896,-0.72c8.352,-18.864 18.72,-38.016 26.208,-51.552c6.192,-10.8 10.368,-19.152 10.224,-24.336c7.776,-1.296 16.128,-2.592 22.32,-1.872c3.312,0.288 3.888,-1.44 3.168,-3.168c-2.16,-6.048 -8.208,-7.776 -14.832,-7.776c-8.352,0 -31.392,3.888 -43.92,3.888c-2.016,0 -3.168,0.864 -2.736,2.736c1.584,5.616 7.776,8.928 17.136,8.928c2.016,0 4.032,-0.288 6.192,-0.576c-12.672,19.584 -27.216,48.816 -30.816,60.768c-0.576,1.872 -0.864,4.032 -0.864,5.76Z" style="fill:none;"/><path d="M596.26,209.613c-4.464,0 -13.68,10.224 -13.68,17.568c0,1.872 1.008,3.744 2.736,5.328c-7.92,9.792 -15.264,21.6 -17.712,26.208c-2.016,3.744 -3.024,7.2 -3.024,10.368c0,3.168 1.152,6.192 3.6,8.496c2.592,2.736 4.464,1.44 5.04,-1.152c2.016,-9.936 10.224,-23.184 21.024,-41.904c3.168,-0.144 6.768,-0.72 10.512,-2.304c-7.2,8.784 -14.832,19.872 -14.832,29.088c0,7.776 4.752,13.968 13.536,13.968c8.208,0 16.704,-6.192 20.16,-14.4c1.584,-3.888 1.44,-7.344 0.432,-9.36c-1.296,-2.592 -3.312,-2.448 -4.464,0.144c-4.464,9.936 -10.224,18 -15.12,18c-2.016,0 -3.168,-2.304 -3.168,-6.048c0,-8.496 8.208,-19.872 15.984,-28.8c1.584,-1.872 2.304,-3.888 2.304,-5.616c0,-3.456 -2.16,-7.2 -4.176,-9.216c-1.872,-1.872 -3.312,-1.584 -5.76,0.144c-4.32,3.168 -8.208,5.184 -11.664,6.048c1.584,-4.608 2.592,-8.784 2.592,-11.52c0,-3.312 -1.296,-5.04 -4.32,-5.04Z" style="fill:none;"/><path d="M682.084,259.581c2.16,-4.176 1.584,-8.352 1.008,-9.648c-1.152,-2.736 -3.6,-2.304 -5.04,0.144c-5.184,9.072 -12.528,19.008 -17.28,19.008c-1.872,0 -2.736,-1.44 -2.736,-4.032c0,-5.616 5.616,-15.408 9.792,-22.176c5.04,-8.352 8.064,-14.688 8.064,-19.584c0,-3.168 -0.72,-5.472 -2.16,-7.488c-1.728,-2.448 -4.032,-1.872 -6.048,0.864c-5.184,6.624 -8.928,16.416 -17.424,30.24c-7.344,11.52 -14.976,21.312 -18.72,21.312c-3.168,0 -2.736,-5.328 -0.144,-11.088c5.04,-11.088 15.552,-27.792 15.552,-33.696c0,-2.16 -0.576,-4.608 -2.16,-6.624c-1.728,-2.16 -4.32,-2.448 -6.192,0c-8.928,12.528 -16.272,26.928 -19.44,36c-1.296,3.456 -1.872,6.768 -1.872,9.936c0,6.192 2.88,11.664 10.224,11.664c7.344,0 13.824,-4.464 18.72,-9.936c0.576,6.48 4.896,10.656 13.392,10.656c8.928,0 18.288,-7.344 22.464,-15.552Z" style="fill:none;"/><path d="M707.716,215.517c-8.352,0 -19.728,7.776 -27.072,22.608c-3.024,5.76 -4.464,11.52 -4.464,16.704c0,11.52 7.344,20.016 20.592,19.872c11.232,-0.144 22.896,-7.2 28.368,-15.84c2.592,-4.032 2.592,-7.776 1.872,-9.648c-0.864,-2.448 -3.024,-1.872 -4.32,0.288c-5.76,8.64 -15.696,19.728 -26.496,19.584c-3.888,-0.144 -6.48,-4.032 -6.48,-10.368c0,-4.32 1.44,-10.224 4.32,-16.128c5.76,-11.664 15.12,-21.024 16.848,-19.584c0.576,0.576 -0.432,3.168 -1.872,6.048c-2.592,5.904 -3.312,8.784 -3.312,10.656c0,3.888 2.448,6.624 5.04,8.208c2.88,1.44 4.176,1.152 5.184,-1.584c0.576,-1.584 1.44,-3.744 2.592,-5.904c2.736,-5.616 5.04,-10.944 2.88,-15.696c-2.304,-4.32 -8.352,-9.216 -13.68,-9.216Z" style="fill:none;"/><path d="M767.476,185.565c0,-2.016 -0.576,-3.888 -1.44,-5.616c-1.584,-3.024 -3.888,-3.024 -6.192,-0.144c-12.672,17.424 -33.408,58.032 -39.888,76.464c-1.44,4.176 -1.872,7.344 -1.872,9.648c0,3.024 0.864,5.04 2.304,6.624c1.728,2.16 4.032,1.44 5.04,-0.576c4.608,-10.8 8.496,-19.584 12.384,-26.496c0,20.16 8.64,28.512 19.296,28.656c12.24,0.144 19.584,-10.224 22.32,-15.264c2.16,-3.744 2.448,-7.344 1.728,-9.216c-1.296,-3.6 -3.168,-3.312 -4.896,0.144c-4.032,8.352 -11.952,18.432 -16.848,18.432c-4.32,0 -7.776,-7.92 -8.352,-18.72c8.496,-2.88 14.4,-6.912 19.008,-11.376c3.6,-3.456 5.04,-7.056 5.04,-10.512c0,-2.448 -0.576,-4.752 -1.728,-6.912c-3.168,-6.624 -7.056,-8.928 -13.536,-6.624c-2.448,0.864 -4.896,1.872 -7.488,3.744c8.64,-15.696 15.12,-26.64 15.12,-32.256Zm-2.016,35.568c1.296,1.872 -1.296,6.624 -7.056,11.376c-4.752,3.888 -14.832,8.352 -19.008,9.792c4.32,-7.2 8.352,-12.384 13.248,-16.128c6.624,-5.04 11.664,-6.768 12.816,-5.04Z" style="fill:none;"/><path d="M798.004,209.037c0,4.464 3.888,8.784 8.496,8.784c3.6,0 5.76,-3.312 5.76,-7.2c0,-4.176 -3.888,-9.36 -7.92,-9.36c-3.312,0 -6.336,3.744 -6.336,7.776Zm10.656,50.544c1.872,-3.744 2.016,-7.344 0.72,-9.792c-1.296,-2.592 -3.168,-2.88 -4.32,-0.288c-4.464,9.792 -11.952,19.44 -17.712,19.44c-1.584,0 -2.16,-1.296 -2.16,-3.6c0,-2.304 0.72,-5.328 2.016,-8.64c2.448,-5.76 9.072,-16.56 11.808,-22.752c3.744,-7.2 2.592,-13.392 -0.144,-16.272c-1.872,-2.16 -3.6,-1.872 -5.76,1.008c-5.328,7.488 -14.544,24.192 -18.144,34.272c-1.152,3.744 -1.728,6.768 -1.728,9.504c0,7.2 3.888,12.24 12.672,12.24c8.496,0 18.432,-6.048 22.752,-15.12Z" style="fill:none;"/><path d="M828.532,216.525c-1.44,-2.592 -3.6,-2.736 -5.472,0c-8.928,13.392 -20.016,33.552 -22.752,41.616c-0.864,2.88 -1.296,5.328 -1.296,7.488c0,3.456 1.152,5.904 3.168,7.92c2.304,2.304 4.176,1.44 5.184,-0.864c5.904,-12.96 12.384,-27.072 20.304,-35.424c7.92,-8.928 14.976,-12.96 16.272,-12.96c1.008,0 -1.296,3.744 -4.32,8.496c-5.616,8.928 -12.24,22.176 -12.24,29.952c0,7.488 4.176,12.384 13.824,12.384c8.64,0 19.152,-7.632 23.184,-15.552c2.016,-3.888 1.872,-8.352 0.72,-10.08c-1.296,-2.016 -3.312,-2.16 -4.752,0.576c-5.184,9.648 -12.672,19.008 -17.568,19.008c-1.872,0 -2.88,-1.872 -2.88,-4.896c0,-5.328 4.896,-14.832 9.504,-22.176c4.608,-8.064 7.2,-12.672 7.2,-15.84c0,-5.472 -3.888,-10.512 -8.064,-10.512c-5.184,0 -12.096,4.752 -18.288,10.512c0.144,-0.864 0.144,-1.872 0.144,-2.88c0,-2.304 -0.576,-4.608 -1.872,-6.768Z" style="fill:none;"/><path d="M922.564,250.797c0,-3.168 -2.592,-3.168 -4.464,-0.72c-5.616,7.776 -12.816,13.824 -21.744,19.296c4.752,-10.944 10.512,-21.456 15.12,-30.528c3.6,-7.2 5.184,-11.088 5.184,-14.976c0,-3.024 -1.008,-5.76 -2.304,-7.344c-1.872,-2.16 -4.464,-2.304 -6.192,1.008c-0.864,1.584 -1.728,3.024 -2.304,4.032c-1.296,-3.456 -4.464,-6.048 -9.216,-6.048c-14.112,0 -38.448,23.76 -38.448,44.352c0,8.64 4.752,14.544 12.96,14.544c3.888,0 7.632,-1.44 10.8,-3.6l-1.872,4.752c-17.568,6.048 -31.536,20.88 -31.536,33.84c0,4.464 2.16,8.208 4.176,11.232c3.024,4.032 6.624,4.608 10.08,3.312c11.664,-5.472 22.176,-27.36 29.808,-45.936c11.808,-4.32 21.744,-10.08 27.216,-18.576c2.16,-3.312 2.736,-6.336 2.736,-8.64Zm-49.68,17.568c-1.296,0 -1.872,-1.872 -1.872,-4.608c0,-16.704 22.176,-39.312 27.072,-39.312c1.008,0 1.44,0.864 1.44,2.592c0,3.744 -2.592,10.8 -8.208,20.592c-7.056,12.096 -13.824,20.88 -18.432,20.736Zm3.024,16.704c-2.736,7.2 -5.904,13.536 -8.784,18.576c-4.464,7.776 -8.064,12.096 -9.36,11.088c-1.44,-1.296 0.432,-8.064 4.608,-15.12c3.024,-5.04 7.488,-10.224 13.536,-14.544Z" style="fill:none;"/><path d="M349.732,273.549c0.864,-1.44 1.44,-3.168 1.44,-4.896c0,-2.304 -0.72,-5.04 -2.016,-7.488c-2.736,-5.328 -7.632,-12.24 -12.816,-18.432c15.696,-4.032 30.528,-12.816 37.872,-22.752c5.328,-7.344 8.352,-15.552 4.464,-25.2c-3.6,-9.072 -10.656,-12.24 -18.288,-11.952c-5.328,0.288 -10.368,1.728 -15.84,3.456c-5.184,1.728 -10.656,3.312 -16.416,4.176c-3.024,0.432 -3.744,1.584 -2.592,3.6c1.728,3.024 3.744,5.04 8.496,5.904c-12.672,19.728 -25.344,45.936 -28.944,58.464c-0.72,2.592 -1.008,5.184 -1.008,7.2c0,3.6 1.152,5.904 2.736,7.632c2.16,2.16 3.744,1.872 4.752,-0.864c4.32,-10.656 8.064,-18.864 11.664,-25.92c5.76,6.48 12.672,15.696 21.6,27.504c1.728,2.304 3.312,2.016 4.896,-0.432Zm2.016,-76.32c4.608,-1.584 10.08,-3.456 13.392,-3.456c2.16,0 3.744,0.72 4.608,3.024c3.744,9.504 -10.368,28.512 -39.168,35.856c2.592,-4.464 6.192,-10.512 10.08,-17.712c3.6,-6.768 5.328,-11.808 5.472,-15.84l5.616,-1.872Z" style="fill:#011;fill-rule:nonzero;stroke:#ccc;stroke-width:1px;"/><path d="M368.164,238.413c-5.184,7.2 -7.776,15.264 -7.776,21.456c0,8.496 4.608,14.688 13.104,14.688c5.76,0 12.24,-4.464 16.416,-8.496c1.152,5.328 5.328,9.072 12.528,9.072c8.784,0 18,-7.632 21.744,-15.552c2.016,-4.176 1.152,-8.064 0.576,-9.36c-1.44,-3.024 -2.736,-2.88 -4.32,0c-4.752,9.36 -11.952,19.152 -17.136,19.152c-1.44,0 -2.016,-1.296 -2.016,-3.456c0,-9.648 12.096,-25.344 15.84,-33.264c3.744,-7.488 2.448,-13.824 0,-16.704c-1.728,-2.016 -4.176,-1.872 -5.904,1.008l-2.736,4.464c-1.296,-3.744 -4.464,-6.336 -9.648,-6.336c-7.344,0 -19.152,6.768 -30.672,23.328Zm7.2,29.808c-1.44,0 -2.016,-1.728 -2.016,-4.32c0,-4.608 2.448,-12.24 6.768,-19.008c7.344,-11.808 17.28,-20.88 20.16,-20.88c1.44,0 1.728,1.008 1.728,2.736c0,3.744 -2.592,10.8 -8.208,20.592c-7.056,12.096 -13.68,20.88 -18.432,20.88Z" style="fill:#011;fill-rule:nonzero;stroke:#ccc;stroke-width:1px;"/><path d="M454.42,205.869c-2.16,-4.896 -7.488,-6.768 -10.512,-3.312c-1.584,1.584 -2.448,3.6 -2.448,5.904c0,1.584 0.432,3.456 1.44,5.184c2.592,4.752 7.92,5.04 10.368,2.16c1.296,-1.44 2.304,-3.456 2.304,-5.616c0,-1.296 -0.288,-2.88 -1.152,-4.464l0,0.144Zm-11.808,27.648c1.728,-3.456 2.304,-6.768 2.304,-9.504c0,-2.88 -0.72,-5.184 -2.16,-6.768c-2.016,-2.016 -3.888,-1.872 -5.76,1.008c-7.632,11.808 -20.448,37.872 -29.664,60.336c-14.112,5.472 -26.496,14.4 -30.672,26.928c-0.864,2.592 -1.296,4.752 -1.296,6.336c0,4.752 2.592,10.08 4.608,13.104c3.168,4.32 6.768,4.464 9.936,3.168c11.52,-5.184 22.32,-28.8 30.24,-47.232c12.528,-5.472 24.048,-12.24 29.376,-21.888c2.16,-3.888 2.592,-7.488 2.16,-8.928c-1.008,-3.168 -3.456,-2.736 -5.04,-0.288c-5.328,7.776 -12.24,15.84 -22.608,22.032c3.312,-7.344 7.488,-15.696 11.232,-23.184c3.168,-6.192 5.76,-11.664 7.344,-15.12Zm-38.016,52.992c-3.744,7.056 -7.056,13.536 -9.936,18.72c-5.616,10.08 -9.504,15.84 -10.8,14.112c-1.584,-2.016 0.288,-9.36 5.616,-17.424c3.456,-5.328 8.496,-10.944 15.12,-15.408Z" style="fill:#011;fill-rule:nonzero;stroke:#ccc;stroke-width:1px;"/><path d="M452.404,238.413c-5.184,7.2 -7.776,15.264 -7.776,21.456c0,8.496 4.608,14.688 13.104,14.688c5.76,0 12.24,-4.464 16.416,-8.496c1.152,5.328 5.328,9.072 12.528,9.072c8.784,0 18,-7.632 21.744,-15.552c2.016,-4.176 1.152,-8.064 0.576,-9.36c-1.44,-3.024 -2.736,-2.88 -4.32,0c-4.752,9.36 -11.952,19.152 -17.136,19.152c-1.44,0 -2.016,-1.296 -2.016,-3.456c0,-9.648 12.096,-25.344 15.84,-33.264c3.744,-7.488 2.448,-13.824 0,-16.704c-1.728,-2.016 -4.176,-1.872 -5.904,1.008l-2.736,4.464c-1.296,-3.744 -4.464,-6.336 -9.648,-6.336c-7.344,0 -19.152,6.768 -30.672,23.328Zm7.2,29.808c-1.44,0 -2.016,-1.728 -2.016,-4.32c0,-4.608 2.448,-12.24 6.768,-19.008c7.344,-11.808 17.28,-20.88 20.16,-20.88c1.44,0 1.728,1.008 1.728,2.736c0,3.744 -2.592,10.8 -8.208,20.592c-7.056,12.096 -13.68,20.88 -18.432,20.88Z" style="fill:#011;fill-rule:nonzero;stroke:#ccc;stroke-width:1px;"/><path d="M541.396,265.197c0,3.6 0.864,5.904 3.024,7.92c2.016,2.016 3.744,1.872 4.896,-0.72c8.352,-18.864 18.72,-38.016 26.208,-51.552c6.192,-10.8 10.368,-19.152 10.224,-24.336c7.776,-1.296 16.128,-2.592 22.32,-1.872c3.312,0.288 3.888,-1.44 3.168,-3.168c-2.16,-6.048 -8.208,-7.776 -14.832,-7.776c-8.352,0 -31.392,3.888 -43.92,3.888c-2.016,0 -3.168,0.864 -2.736,2.736c1.584,5.616 7.776,8.928 17.136,8.928c2.016,0 4.032,-0.288 6.192,-0.576c-12.672,19.584 -27.216,48.816 -30.816,60.768c-0.576,1.872 -0.864,4.032 -0.864,5.76Z" style="fill:#011;fill-rule:nonzero;stroke:#ccc;stroke-width:1px;"/><path d="M596.26,209.613c-4.464,0 -13.68,10.224 -13.68,17.568c0,1.872 1.008,3.744 2.736,5.328c-7.92,9.792 -15.264,21.6 -17.712,26.208c-2.016,3.744 -3.024,7.2 -3.024,10.368c0,3.168 1.152,6.192 3.6,8.496c2.592,2.736 4.464,1.44 5.04,-1.152c2.016,-9.936 10.224,-23.184 21.024,-41.904c3.168,-0.144 6.768,-0.72 10.512,-2.304c-7.2,8.784 -14.832,19.872 -14.832,29.088c0,7.776 4.752,13.968 13.536,13.968c8.208,0 16.704,-6.192 20.16,-14.4c1.584,-3.888 1.44,-7.344 0.432,-9.36c-1.296,-2.592 -3.312,-2.448 -4.464,0.144c-4.464,9.936 -10.224,18 -15.12,18c-2.016,0 -3.168,-2.304 -3.168,-6.048c0,-8.496 8.208,-19.872 15.984,-28.8c1.584,-1.872 2.304,-3.888 2.304,-5.616c0,-3.456 -2.16,-7.2 -4.176,-9.216c-1.872,-1.872 -3.312,-1.584 -5.76,0.144c-4.32,3.168 -8.208,5.184 -11.664,6.048c1.584,-4.608 2.592,-8.784 2.592,-11.52c0,-3.312 -1.296,-5.04 -4.32,-5.04Z" style="fill:#011;fill-rule:nonzero;stroke:#ccc;stroke-width:1px;"/><path d="M682.084,259.581c2.16,-4.176 1.584,-8.352 1.008,-9.648c-1.152,-2.736 -3.6,-2.304 -5.04,0.144c-5.184,9.072 -12.528,19.008 -17.28,19.008c-1.872,0 -2.736,-1.44 -2.736,-4.032c0,-5.616 5.616,-15.408 9.792,-22.176c5.04,-8.352 8.064,-14.688 8.064,-19.584c0,-3.168 -0.72,-5.472 -2.16,-7.488c-1.728,-2.448 -4.032,-1.872 -6.048,0.864c-5.184,6.624 -8.928,16.416 -17.424,30.24c-7.344,11.52 -14.976,21.312 -18.72,21.312c-3.168,0 -2.736,-5.328 -0.144,-11.088c5.04,-11.088 15.552,-27.792 15.552,-33.696c0,-2.16 -0.576,-4.608 -2.16,-6.624c-1.728,-2.16 -4.32,-2.448 -6.192,0c-8.928,12.528 -16.272,26.928 -19.44,36c-1.296,3.456 -1.872,6.768 -1.872,9.936c0,6.192 2.88,11.664 10.224,11.664c7.344,0 13.824,-4.464 18.72,-9.936c0.576,6.48 4.896,10.656 13.392,10.656c8.928,0 18.288,-7.344 22.464,-15.552Z" style="fill:#011;fill-rule:nonzero;stroke:#ccc;stroke-width:1px;"/><path d="M707.716,215.517c-8.352,0 -19.728,7.776 -27.072,22.608c-3.024,5.76 -4.464,11.52 -4.464,16.704c0,11.52 7.344,20.016 20.592,19.872c11.232,-0.144 22.896,-7.2 28.368,-15.84c2.592,-4.032 2.592,-7.776 1.872,-9.648c-0.864,-2.448 -3.024,-1.872 -4.32,0.288c-5.76,8.64 -15.696,19.728 -26.496,19.584c-3.888,-0.144 -6.48,-4.032 -6.48,-10.368c0,-4.32 1.44,-10.224 4.32,-16.128c5.76,-11.664 15.12,-21.024 16.848,-19.584c0.576,0.576 -0.432,3.168 -1.872,6.048c-2.592,5.904 -3.312,8.784 -3.312,10.656c0,3.888 2.448,6.624 5.04,8.208c2.88,1.44 4.176,1.152 5.184,-1.584c0.576,-1.584 1.44,-3.744 2.592,-5.904c2.736,-5.616 5.04,-10.944 2.88,-15.696c-2.304,-4.32 -8.352,-9.216 -13.68,-9.216Z" style="fill:#011;fill-rule:nonzero;stroke:#ccc;stroke-width:1px;"/><path d="M767.476,185.565c0,-2.016 -0.576,-3.888 -1.44,-5.616c-1.584,-3.024 -3.888,-3.024 -6.192,-0.144c-12.672,17.424 -33.408,58.032 -39.888,76.464c-1.44,4.176 -1.872,7.344 -1.872,9.648c0,3.024 0.864,5.04 2.304,6.624c1.728,2.16 4.032,1.44 5.04,-0.576c4.608,-10.8 8.496,-19.584 12.384,-26.496c0,20.16 8.64,28.512 19.296,28.656c12.24,0.144 19.584,-10.224 22.32,-15.264c2.16,-3.744 2.448,-7.344 1.728,-9.216c-1.296,-3.6 -3.168,-3.312 -4.896,0.144c-4.032,8.352 -11.952,18.432 -16.848,18.432c-4.32,0 -7.776,-7.92 -8.352,-18.72c8.496,-2.88 14.4,-6.912 19.008,-11.376c3.6,-3.456 5.04,-7.056 5.04,-10.512c0,-2.448 -0.576,-4.752 -1.728,-6.912c-3.168,-6.624 -7.056,-8.928 -13.536,-6.624c-2.448,0.864 -4.896,1.872 -7.488,3.744c8.64,-15.696 15.12,-26.64 15.12,-32.256Zm-2.016,35.568c1.296,1.872 -1.296,6.624 -7.056,11.376c-4.752,3.888 -14.832,8.352 -19.008,9.792c4.32,-7.2 8.352,-12.384 13.248,-16.128c6.624,-5.04 11.664,-6.768 12.816,-5.04Z" style="fill:#011;fill-rule:nonzero;stroke:#ccc;stroke-width:1px;"/><path d="M798.004,209.037c0,4.464 3.888,8.784 8.496,8.784c3.6,0 5.76,-3.312 5.76,-7.2c0,-4.176 -3.888,-9.36 -7.92,-9.36c-3.312,0 -6.336,3.744 -6.336,7.776Zm10.656,50.544c1.872,-3.744 2.016,-7.344 0.72,-9.792c-1.296,-2.592 -3.168,-2.88 -4.32,-0.288c-4.464,9.792 -11.952,19.44 -17.712,19.44c-1.584,0 -2.16,-1.296 -2.16,-3.6c0,-2.304 0.72,-5.328 2.016,-8.64c2.448,-5.76 9.072,-16.56 11.808,-22.752c3.744,-7.2 2.592,-13.392 -0.144,-16.272c-1.872,-2.16 -3.6,-1.872 -5.76,1.008c-5.328,7.488 -14.544,24.192 -18.144,34.272c-1.152,3.744 -1.728,6.768 -1.728,9.504c0,7.2 3.888,12.24 12.672,12.24c8.496,0 18.432,-6.048 22.752,-15.12Z" style="fill:#011;fill-rule:nonzero;stroke:#ccc;stroke-width:1px;"/><path d="M828.532,216.525c-1.44,-2.592 -3.6,-2.736 -5.472,0c-8.928,13.392 -20.016,33.552 -22.752,41.616c-0.864,2.88 -1.296,5.328 -1.296,7.488c0,3.456 1.152,5.904 3.168,7.92c2.304,2.304 4.176,1.44 5.184,-0.864c5.904,-12.96 12.384,-27.072 20.304,-35.424c7.92,-8.928 14.976,-12.96 16.272,-12.96c1.008,0 -1.296,3.744 -4.32,8.496c-5.616,8.928 -12.24,22.176 -12.24,29.952c0,7.488 4.176,12.384 13.824,12.384c8.64,0 19.152,-7.632 23.184,-15.552c2.016,-3.888 1.872,-8.352 0.72,-10.08c-1.296,-2.016 -3.312,-2.16 -4.752,0.576c-5.184,9.648 -12.672,19.008 -17.568,19.008c-1.872,0 -2.88,-1.872 -2.88,-4.896c0,-5.328 4.896,-14.832 9.504,-22.176c4.608,-8.064 7.2,-12.672 7.2,-15.84c0,-5.472 -3.888,-10.512 -8.064,-10.512c-5.184,0 -12.096,4.752 -18.288,10.512c0.144,-0.864 0.144,-1.872 0.144,-2.88c0,-2.304 -0.576,-4.608 -1.872,-6.768Z" style="fill:#011;fill-rule:nonzero;stroke:#ccc;stroke-width:1px;"/><path d="M922.564,250.797c0,-3.168 -2.592,-3.168 -4.464,-0.72c-5.616,7.776 -12.816,13.824 -21.744,19.296c4.752,-10.944 10.512,-21.456 15.12,-30.528c3.6,-7.2 5.184,-11.088 5.184,-14.976c0,-3.024 -1.008,-5.76 -2.304,-7.344c-1.872,-2.16 -4.464,-2.304 -6.192,1.008c-0.864,1.584 -1.728,3.024 -2.304,4.032c-1.296,-3.456 -4.464,-6.048 -9.216,-6.048c-14.112,0 -38.448,23.76 -38.448,44.352c0,8.64 4.752,14.544 12.96,14.544c3.888,0 7.632,-1.44 10.8,-3.6l-1.872,4.752c-17.568,6.048 -31.536,20.88 -31.536,33.84c0,4.464 2.16,8.208 4.176,11.232c3.024,4.032 6.624,4.608 10.08,3.312c11.664,-5.472 22.176,-27.36 29.808,-45.936c11.808,-4.32 21.744,-10.08 27.216,-18.576c2.16,-3.312 2.736,-6.336 2.736,-8.64Zm-49.68,17.568c-1.296,0 -1.872,-1.872 -1.872,-4.608c0,-16.704 22.176,-39.312 27.072,-39.312c1.008,0 1.44,0.864 1.44,2.592c0,3.744 -2.592,10.8 -8.208,20.592c-7.056,12.096 -13.824,20.88 -18.432,20.736Zm3.024,16.704c-2.736,7.2 -5.904,13.536 -8.784,18.576c-4.464,7.776 -8.064,12.096 -9.36,11.088c-1.44,-1.296 0.432,-8.064 4.608,-15.12c3.024,-5.04 7.488,-10.224 13.536,-14.544Z" style="fill:#011;fill-rule:nonzero;stroke:#ccc;stroke-width:1px;"/></g></svg>