<?xml version="1.0" encoding="UTF-8" standalone="no"?>
<!DOCTYPE svg PUBLIC "-//W3C//DTD SVG 1.1//EN" "http://www.w3.org/Graphics/SVG/1.1/DTD/svg11.dtd">
<svg width="100%" height="100%" viewBox="0 0 709 254" version="1.1" xmlns="http://www.w3.org/2000/svg" xmlns:xlink="http://www.w3.org/1999/xlink" xml:space="preserve" style="fill-rule:evenodd;clip-rule:evenodd;stroke-linejoin:round;stroke-miterlimit:1.41421;">
    <g transform="matrix(1,0,0,1,0,-821.283)">
        <g id="Blue-w--80--black-outline" transform="matrix(1.22463,0,0,1.43793,-105.617,766.542)">
            <rect x="86.244" y="38.069" width="578.755" height="176.606" style="fill:none;"/>
            <g id="Blue-w--80--black-outline1" transform="matrix(0.816576,0,0,0.695447,-127.967,-33.5589)">
                <path d="M349.732,273.549C350.596,272.109 351.172,270.381 351.172,268.653C351.172,266.349 350.452,263.613 349.156,261.165C346.42,255.837 341.524,248.925 336.34,242.733C352.036,238.701 366.868,229.917 374.212,219.981C379.54,212.637 382.564,204.429 378.676,194.781C375.076,185.709 368.02,182.541 360.388,182.829C355.06,183.117 350.02,184.557 344.548,186.285C339.364,188.013 333.892,189.597 328.132,190.461C325.108,190.893 324.388,192.045 325.54,194.061C327.268,197.085 329.284,199.101 334.036,199.965C321.364,219.693 308.692,245.901 305.092,258.429C304.372,261.021 304.084,263.613 304.084,265.629C304.084,269.229 305.236,271.533 306.82,273.261C308.98,275.421 310.564,275.133 311.572,272.397C315.892,261.741 319.636,253.533 323.236,246.477C328.996,252.957 335.908,262.173 344.836,273.981C346.564,276.285 348.148,275.997 349.732,273.549ZM351.748,197.229C356.356,195.645 361.828,193.773 365.14,193.773C367.3,193.773 368.884,194.493 369.748,196.797C373.492,206.301 359.38,225.309 330.58,232.653C333.172,228.189 336.772,222.141 340.66,214.941C344.26,208.173 345.988,203.133 346.132,199.101L351.748,197.229Z" style="fill:none;"/>
                <path d="M368.164,238.413C362.98,245.613 360.388,253.677 360.388,259.869C360.388,268.365 364.996,274.557 373.492,274.557C379.252,274.557 385.732,270.093 389.908,266.061C391.06,271.389 395.236,275.133 402.436,275.133C411.22,275.133 420.436,267.501 424.18,259.581C426.196,255.405 425.332,251.517 424.756,250.221C423.316,247.197 422.02,247.341 420.436,250.221C415.684,259.581 408.484,269.373 403.3,269.373C401.86,269.373 401.284,268.077 401.284,265.917C401.284,256.269 413.38,240.573 417.124,232.653C420.868,225.165 419.572,218.829 417.124,215.949C415.396,213.933 412.948,214.077 411.22,216.957L408.484,221.421C407.188,217.677 404.02,215.085 398.836,215.085C391.492,215.085 379.684,221.853 368.164,238.413ZM375.364,268.221C373.924,268.221 373.348,266.493 373.348,263.901C373.348,259.293 375.796,251.661 380.116,244.893C387.46,233.085 397.396,224.013 400.276,224.013C401.716,224.013 402.004,225.021 402.004,226.749C402.004,230.493 399.412,237.549 393.796,247.341C386.74,259.437 380.116,268.221 375.364,268.221Z" style="fill:none;"/>
                <path d="M454.42,205.869C452.26,200.973 446.932,199.101 443.908,202.557C442.324,204.141 441.46,206.157 441.46,208.461C441.46,210.045 441.892,211.917 442.9,213.645C445.492,218.397 450.82,218.685 453.268,215.805C454.564,214.365 455.572,212.349 455.572,210.189C455.572,208.893 455.284,207.309 454.42,205.725L454.42,205.869ZM442.612,233.517C444.34,230.061 444.916,226.749 444.916,224.013C444.916,221.133 444.196,218.829 442.756,217.245C440.74,215.229 438.868,215.373 436.996,218.253C429.364,230.061 416.548,256.125 407.332,278.589C393.22,284.061 380.836,292.989 376.66,305.517C375.796,308.109 375.364,310.269 375.364,311.853C375.364,316.605 377.956,321.933 379.972,324.957C383.14,329.277 386.74,329.421 389.908,328.125C401.428,322.941 412.228,299.325 420.148,280.893C432.676,275.421 444.196,268.653 449.524,259.005C451.684,255.117 452.116,251.517 451.684,250.077C450.676,246.909 448.228,247.341 446.644,249.789C441.316,257.565 434.404,265.629 424.036,271.821C427.348,264.477 431.524,256.125 435.268,248.637C438.436,242.445 441.028,236.973 442.612,233.517ZM404.596,286.509C400.852,293.565 397.54,300.045 394.66,305.229C389.044,315.309 385.156,321.069 383.86,319.341C382.276,317.325 384.148,309.981 389.476,301.917C392.932,296.589 397.972,290.973 404.596,286.509Z" style="fill:none;"/>
                <path d="M452.404,238.413C447.22,245.613 444.628,253.677 444.628,259.869C444.628,268.365 449.236,274.557 457.732,274.557C463.492,274.557 469.972,270.093 474.148,266.061C475.3,271.389 479.476,275.133 486.676,275.133C495.46,275.133 504.676,267.501 508.42,259.581C510.436,255.405 509.572,251.517 508.996,250.221C507.556,247.197 506.26,247.341 504.676,250.221C499.924,259.581 492.724,269.373 487.54,269.373C486.1,269.373 485.524,268.077 485.524,265.917C485.524,256.269 497.62,240.573 501.364,232.653C505.108,225.165 503.812,218.829 501.364,215.949C499.636,213.933 497.188,214.077 495.46,216.957L492.724,221.421C491.428,217.677 488.26,215.085 483.076,215.085C475.732,215.085 463.924,221.853 452.404,238.413ZM459.604,268.221C458.164,268.221 457.588,266.493 457.588,263.901C457.588,259.293 460.036,251.661 464.356,244.893C471.7,233.085 481.636,224.013 484.516,224.013C485.956,224.013 486.244,225.021 486.244,226.749C486.244,230.493 483.652,237.549 478.036,247.341C470.98,259.437 464.356,268.221 459.604,268.221Z" style="fill:none;"/>
                <path d="M541.396,265.197C541.396,268.797 542.26,271.101 544.42,273.117C546.436,275.133 548.164,274.989 549.316,272.397C557.668,253.533 568.036,234.381 575.524,220.845C581.716,210.045 585.892,201.693 585.748,196.509C593.524,195.213 601.876,193.917 608.068,194.637C611.38,194.925 611.956,193.197 611.236,191.469C609.076,185.421 603.028,183.693 596.404,183.693C588.052,183.693 565.012,187.581 552.484,187.581C550.468,187.581 549.316,188.445 549.748,190.317C551.332,195.933 557.524,199.245 566.884,199.245C568.9,199.245 570.916,198.957 573.076,198.669C560.404,218.253 545.86,247.485 542.26,259.437C541.684,261.309 541.396,263.469 541.396,265.197Z" style="fill:none;"/>
                <path d="M596.26,209.613C591.796,209.613 582.58,219.837 582.58,227.181C582.58,229.053 583.588,230.925 585.316,232.509C577.396,242.301 570.052,254.109 567.604,258.717C565.588,262.461 564.58,265.917 564.58,269.085C564.58,272.253 565.732,275.277 568.18,277.581C570.772,280.317 572.644,279.021 573.22,276.429C575.236,266.493 583.444,253.245 594.244,234.525C597.412,234.381 601.012,233.805 604.756,232.221C597.556,241.005 589.924,252.093 589.924,261.309C589.924,269.085 594.676,275.277 603.46,275.277C611.668,275.277 620.164,269.085 623.62,260.877C625.204,256.989 625.06,253.533 624.052,251.517C622.756,248.925 620.74,249.069 619.588,251.661C615.124,261.597 609.364,269.661 604.468,269.661C602.452,269.661 601.3,267.357 601.3,263.613C601.3,255.117 609.508,243.741 617.284,234.813C618.868,232.941 619.588,230.925 619.588,229.197C619.588,225.741 617.428,221.997 615.412,219.981C613.54,218.109 612.1,218.397 609.652,220.125C605.332,223.293 601.444,225.309 597.988,226.173C599.572,221.565 600.58,217.389 600.58,214.653C600.58,211.341 599.284,209.613 596.26,209.613Z" style="fill:none;"/>
                <path d="M682.084,259.581C684.244,255.405 683.668,251.229 683.092,249.933C681.94,247.197 679.492,247.629 678.052,250.077C672.868,259.149 665.524,269.085 660.772,269.085C658.9,269.085 658.036,267.645 658.036,265.053C658.036,259.437 663.652,249.645 667.828,242.877C672.868,234.525 675.892,228.189 675.892,223.293C675.892,220.125 675.172,217.821 673.732,215.805C672.004,213.357 669.7,213.933 667.684,216.669C662.5,223.293 658.756,233.085 650.26,246.909C642.916,258.429 635.284,268.221 631.54,268.221C628.372,268.221 628.804,262.893 631.396,257.133C636.436,246.045 646.948,229.341 646.948,223.437C646.948,221.277 646.372,218.829 644.788,216.813C643.06,214.653 640.468,214.365 638.596,216.813C629.668,229.341 622.324,243.741 619.156,252.813C617.86,256.269 617.284,259.581 617.284,262.749C617.284,268.941 620.164,274.413 627.508,274.413C634.852,274.413 641.332,269.949 646.228,264.477C646.804,270.957 651.124,275.133 659.62,275.133C668.548,275.133 677.908,267.789 682.084,259.581Z" style="fill:none;"/>
                <path d="M707.716,215.517C699.364,215.517 687.988,223.293 680.644,238.125C677.62,243.885 676.18,249.645 676.18,254.829C676.18,266.349 683.524,274.845 696.772,274.701C708.004,274.557 719.668,267.501 725.14,258.861C727.732,254.829 727.732,251.085 727.012,249.213C726.148,246.765 723.988,247.341 722.692,249.501C716.932,258.141 706.996,269.229 696.196,269.085C692.308,268.941 689.716,265.053 689.716,258.717C689.716,254.397 691.156,248.493 694.036,242.589C699.796,230.925 709.156,221.565 710.884,223.005C711.46,223.581 710.452,226.173 709.012,229.053C706.42,234.957 705.7,237.837 705.7,239.709C705.7,243.597 708.148,246.333 710.74,247.917C713.62,249.357 714.916,249.069 715.924,246.333C716.5,244.749 717.364,242.589 718.516,240.429C721.252,234.813 723.556,229.485 721.396,224.733C719.092,220.413 713.044,215.517 707.716,215.517Z" style="fill:none;"/>
                <path d="M767.476,185.565C767.476,183.549 766.9,181.677 766.036,179.949C764.452,176.925 762.148,176.925 759.844,179.805C747.172,197.229 726.436,237.837 719.956,256.269C718.516,260.445 718.084,263.613 718.084,265.917C718.084,268.941 718.948,270.957 720.388,272.541C722.116,274.701 724.42,273.981 725.428,271.965C730.036,261.165 733.924,252.381 737.812,245.469C737.812,265.629 746.452,273.981 757.108,274.125C769.348,274.269 776.692,263.901 779.428,258.861C781.588,255.117 781.876,251.517 781.156,249.645C779.86,246.045 777.988,246.333 776.26,249.789C772.228,258.141 764.308,268.221 759.412,268.221C755.092,268.221 751.636,260.301 751.06,249.501C759.556,246.621 765.46,242.589 770.068,238.125C773.668,234.669 775.108,231.069 775.108,227.613C775.108,225.165 774.532,222.861 773.38,220.701C770.212,214.077 766.324,211.773 759.844,214.077C757.396,214.941 754.948,215.949 752.356,217.821C760.996,202.125 767.476,191.181 767.476,185.565ZM765.46,221.133C766.756,223.005 764.164,227.757 758.404,232.509C753.652,236.397 743.572,240.861 739.396,242.301C743.716,235.101 747.748,229.917 752.644,226.173C759.268,221.133 764.308,219.405 765.46,221.133Z" style="fill:none;"/>
                <path d="M798.004,209.037C798.004,213.501 801.892,217.821 806.5,217.821C810.1,217.821 812.26,214.509 812.26,210.621C812.26,206.445 808.372,201.261 804.34,201.261C801.028,201.261 798.004,205.005 798.004,209.037ZM808.66,259.581C810.532,255.837 810.676,252.237 809.38,249.789C808.084,247.197 806.212,246.909 805.06,249.501C800.596,259.293 793.108,268.941 787.348,268.941C785.764,268.941 785.188,267.645 785.188,265.341C785.188,263.037 785.908,260.013 787.204,256.701C789.652,250.941 796.276,240.141 799.012,233.949C802.756,226.749 801.604,220.557 798.868,217.677C796.996,215.517 795.268,215.805 793.108,218.685C787.78,226.173 778.564,242.877 774.964,252.957C773.812,256.701 773.236,259.725 773.236,262.461C773.236,269.661 777.124,274.701 785.908,274.701C794.404,274.701 804.34,268.653 808.66,259.581Z" style="fill:none;"/>
                <path d="M828.532,216.525C827.092,213.933 824.932,213.789 823.06,216.525C814.132,229.917 803.044,250.077 800.308,258.141C799.444,261.021 799.012,263.469 799.012,265.629C799.012,269.085 800.164,271.533 802.18,273.549C804.484,275.853 806.356,274.989 807.364,272.685C813.268,259.725 819.748,245.613 827.668,237.261C835.588,228.333 842.644,224.301 843.94,224.301C844.948,224.301 842.644,228.045 839.62,232.797C834.004,241.725 827.38,254.973 827.38,262.749C827.38,270.237 831.556,275.133 841.204,275.133C849.844,275.133 860.356,267.501 864.388,259.581C866.404,255.693 866.26,251.229 865.108,249.501C863.812,247.485 861.796,247.341 860.356,250.077C855.172,259.725 847.684,269.085 842.788,269.085C840.916,269.085 839.908,267.213 839.908,264.189C839.908,258.861 844.804,249.357 849.412,242.013C854.02,233.949 856.612,229.341 856.612,226.173C856.612,220.701 852.724,215.661 848.548,215.661C843.364,215.661 836.452,220.413 830.26,226.173C830.404,225.309 830.404,224.301 830.404,223.293C830.404,220.989 829.828,218.685 828.532,216.525Z" style="fill:none;"/>
                <path d="M922.564,250.797C922.564,247.629 919.972,247.629 918.1,250.077C912.484,257.853 905.284,263.901 896.356,269.373C901.108,258.429 906.868,247.917 911.476,238.845C915.076,231.645 916.66,227.757 916.66,223.869C916.66,220.845 915.652,218.109 914.356,216.525C912.484,214.365 909.892,214.221 908.164,217.533C907.3,219.117 906.436,220.557 905.86,221.565C904.564,218.109 901.396,215.517 896.644,215.517C882.532,215.517 858.196,239.277 858.196,259.869C858.196,268.509 862.948,274.413 871.156,274.413C875.044,274.413 878.788,272.973 881.956,270.813L880.084,275.565C862.516,281.613 848.548,296.445 848.548,309.405C848.548,313.869 850.708,317.613 852.724,320.637C855.748,324.669 859.348,325.245 862.804,323.949C874.468,318.477 884.98,296.589 892.612,278.013C904.42,273.693 914.356,267.933 919.828,259.437C921.988,256.125 922.564,253.101 922.564,250.797ZM872.884,268.365C871.588,268.365 871.012,266.493 871.012,263.757C871.012,247.053 893.188,224.445 898.084,224.445C899.092,224.445 899.524,225.309 899.524,227.037C899.524,230.781 896.932,237.837 891.316,247.629C884.26,259.725 877.492,268.509 872.884,268.365ZM875.908,285.069C873.172,292.269 870.004,298.605 867.124,303.645C862.66,311.421 859.06,315.741 857.764,314.733C856.324,313.437 858.196,306.669 862.372,299.613C865.396,294.573 869.86,289.389 875.908,285.069Z" style="fill:none;"/>
                <path d="M349.732,273.549C350.596,272.109 351.172,270.381 351.172,268.653C351.172,266.349 350.452,263.613 349.156,261.165C346.42,255.837 341.524,248.925 336.34,242.733C352.036,238.701 366.868,229.917 374.212,219.981C379.54,212.637 382.564,204.429 378.676,194.781C375.076,185.709 368.02,182.541 360.388,182.829C355.06,183.117 350.02,184.557 344.548,186.285C339.364,188.013 333.892,189.597 328.132,190.461C325.108,190.893 324.388,192.045 325.54,194.061C327.268,197.085 329.284,199.101 334.036,199.965C321.364,219.693 308.692,245.901 305.092,258.429C304.372,261.021 304.084,263.613 304.084,265.629C304.084,269.229 305.236,271.533 306.82,273.261C308.98,275.421 310.564,275.133 311.572,272.397C315.892,261.741 319.636,253.533 323.236,246.477C328.996,252.957 335.908,262.173 344.836,273.981C346.564,276.285 348.148,275.997 349.732,273.549ZM351.748,197.229C356.356,195.645 361.828,193.773 365.14,193.773C367.3,193.773 368.884,194.493 369.748,196.797C373.492,206.301 359.38,225.309 330.58,232.653C333.172,228.189 336.772,222.141 340.66,214.941C344.26,208.173 345.988,203.133 346.132,199.101L351.748,197.229Z" style="fill:rgb(30,174,219);fill-rule:nonzero;stroke:rgb(51,51,51);stroke-width:1px;"/>
                <path d="M368.164,238.413C362.98,245.613 360.388,253.677 360.388,259.869C360.388,268.365 364.996,274.557 373.492,274.557C379.252,274.557 385.732,270.093 389.908,266.061C391.06,271.389 395.236,275.133 402.436,275.133C411.22,275.133 420.436,267.501 424.18,259.581C426.196,255.405 425.332,251.517 424.756,250.221C423.316,247.197 422.02,247.341 420.436,250.221C415.684,259.581 408.484,269.373 403.3,269.373C401.86,269.373 401.284,268.077 401.284,265.917C401.284,256.269 413.38,240.573 417.124,232.653C420.868,225.165 419.572,218.829 417.124,215.949C415.396,213.933 412.948,214.077 411.22,216.957L408.484,221.421C407.188,217.677 404.02,215.085 398.836,215.085C391.492,215.085 379.684,221.853 368.164,238.413ZM375.364,268.221C373.924,268.221 373.348,266.493 373.348,263.901C373.348,259.293 375.796,251.661 380.116,244.893C387.46,233.085 397.396,224.013 400.276,224.013C401.716,224.013 402.004,225.021 402.004,226.749C402.004,230.493 399.412,237.549 393.796,247.341C386.74,259.437 380.116,268.221 375.364,268.221Z" style="fill:rgb(30,174,219);fill-rule:nonzero;stroke:rgb(51,51,51);stroke-width:1px;"/>
                <path d="M454.42,205.869C452.26,200.973 446.932,199.101 443.908,202.557C442.324,204.141 441.46,206.157 441.46,208.461C441.46,210.045 441.892,211.917 442.9,213.645C445.492,218.397 450.82,218.685 453.268,215.805C454.564,214.365 455.572,212.349 455.572,210.189C455.572,208.893 455.284,207.309 454.42,205.725L454.42,205.869ZM442.612,233.517C444.34,230.061 444.916,226.749 444.916,224.013C444.916,221.133 444.196,218.829 442.756,217.245C440.74,215.229 438.868,215.373 436.996,218.253C429.364,230.061 416.548,256.125 407.332,278.589C393.22,284.061 380.836,292.989 376.66,305.517C375.796,308.109 375.364,310.269 375.364,311.853C375.364,316.605 377.956,321.933 379.972,324.957C383.14,329.277 386.74,329.421 389.908,328.125C401.428,322.941 412.228,299.325 420.148,280.893C432.676,275.421 444.196,268.653 449.524,259.005C451.684,255.117 452.116,251.517 451.684,250.077C450.676,246.909 448.228,247.341 446.644,249.789C441.316,257.565 434.404,265.629 424.036,271.821C427.348,264.477 431.524,256.125 435.268,248.637C438.436,242.445 441.028,236.973 442.612,233.517ZM404.596,286.509C400.852,293.565 397.54,300.045 394.66,305.229C389.044,315.309 385.156,321.069 383.86,319.341C382.276,317.325 384.148,309.981 389.476,301.917C392.932,296.589 397.972,290.973 404.596,286.509Z" style="fill:rgb(30,174,219);fill-rule:nonzero;stroke:rgb(51,51,51);stroke-width:1px;"/>
                <path d="M452.404,238.413C447.22,245.613 444.628,253.677 444.628,259.869C444.628,268.365 449.236,274.557 457.732,274.557C463.492,274.557 469.972,270.093 474.148,266.061C475.3,271.389 479.476,275.133 486.676,275.133C495.46,275.133 504.676,267.501 508.42,259.581C510.436,255.405 509.572,251.517 508.996,250.221C507.556,247.197 506.26,247.341 504.676,250.221C499.924,259.581 492.724,269.373 487.54,269.373C486.1,269.373 485.524,268.077 485.524,265.917C485.524,256.269 497.62,240.573 501.364,232.653C505.108,225.165 503.812,218.829 501.364,215.949C499.636,213.933 497.188,214.077 495.46,216.957L492.724,221.421C491.428,217.677 488.26,215.085 483.076,215.085C475.732,215.085 463.924,221.853 452.404,238.413ZM459.604,268.221C458.164,268.221 457.588,266.493 457.588,263.901C457.588,259.293 460.036,251.661 464.356,244.893C471.7,233.085 481.636,224.013 484.516,224.013C485.956,224.013 486.244,225.021 486.244,226.749C486.244,230.493 483.652,237.549 478.036,247.341C470.98,259.437 464.356,268.221 459.604,268.221Z" style="fill:rgb(30,174,219);fill-rule:nonzero;stroke:rgb(51,51,51);stroke-width:1px;"/>
                <path d="M541.396,265.197C541.396,268.797 542.26,271.101 544.42,273.117C546.436,275.133 548.164,274.989 549.316,272.397C557.668,253.533 568.036,234.381 575.524,220.845C581.716,210.045 585.892,201.693 585.748,196.509C593.524,195.213 601.876,193.917 608.068,194.637C611.38,194.925 611.956,193.197 611.236,191.469C609.076,185.421 603.028,183.693 596.404,183.693C588.052,183.693 565.012,187.581 552.484,187.581C550.468,187.581 549.316,188.445 549.748,190.317C551.332,195.933 557.524,199.245 566.884,199.245C568.9,199.245 570.916,198.957 573.076,198.669C560.404,218.253 545.86,247.485 542.26,259.437C541.684,261.309 541.396,263.469 541.396,265.197Z" style="fill:rgb(30,174,219);fill-rule:nonzero;stroke:rgb(51,51,51);stroke-width:1px;"/>
                <path d="M596.26,209.613C591.796,209.613 582.58,219.837 582.58,227.181C582.58,229.053 583.588,230.925 585.316,232.509C577.396,242.301 570.052,254.109 567.604,258.717C565.588,262.461 564.58,265.917 564.58,269.085C564.58,272.253 565.732,275.277 568.18,277.581C570.772,280.317 572.644,279.021 573.22,276.429C575.236,266.493 583.444,253.245 594.244,234.525C597.412,234.381 601.012,233.805 604.756,232.221C597.556,241.005 589.924,252.093 589.924,261.309C589.924,269.085 594.676,275.277 603.46,275.277C611.668,275.277 620.164,269.085 623.62,260.877C625.204,256.989 625.06,253.533 624.052,251.517C622.756,248.925 620.74,249.069 619.588,251.661C615.124,261.597 609.364,269.661 604.468,269.661C602.452,269.661 601.3,267.357 601.3,263.613C601.3,255.117 609.508,243.741 617.284,234.813C618.868,232.941 619.588,230.925 619.588,229.197C619.588,225.741 617.428,221.997 615.412,219.981C613.54,218.109 612.1,218.397 609.652,220.125C605.332,223.293 601.444,225.309 597.988,226.173C599.572,221.565 600.58,217.389 600.58,214.653C600.58,211.341 599.284,209.613 596.26,209.613Z" style="fill:rgb(30,174,219);fill-rule:nonzero;stroke:rgb(51,51,51);stroke-width:1px;"/>
                <path d="M682.084,259.581C684.244,255.405 683.668,251.229 683.092,249.933C681.94,247.197 679.492,247.629 678.052,250.077C672.868,259.149 665.524,269.085 660.772,269.085C658.9,269.085 658.036,267.645 658.036,265.053C658.036,259.437 663.652,249.645 667.828,242.877C672.868,234.525 675.892,228.189 675.892,223.293C675.892,220.125 675.172,217.821 673.732,215.805C672.004,213.357 669.7,213.933 667.684,216.669C662.5,223.293 658.756,233.085 650.26,246.909C642.916,258.429 635.284,268.221 631.54,268.221C628.372,268.221 628.804,262.893 631.396,257.133C636.436,246.045 646.948,229.341 646.948,223.437C646.948,221.277 646.372,218.829 644.788,216.813C643.06,214.653 640.468,214.365 638.596,216.813C629.668,229.341 622.324,243.741 619.156,252.813C617.86,256.269 617.284,259.581 617.284,262.749C617.284,268.941 620.164,274.413 627.508,274.413C634.852,274.413 641.332,269.949 646.228,264.477C646.804,270.957 651.124,275.133 659.62,275.133C668.548,275.133 677.908,267.789 682.084,259.581Z" style="fill:rgb(30,174,219);fill-rule:nonzero;stroke:rgb(51,51,51);stroke-width:1px;"/>
                <path d="M707.716,215.517C699.364,215.517 687.988,223.293 680.644,238.125C677.62,243.885 676.18,249.645 676.18,254.829C676.18,266.349 683.524,274.845 696.772,274.701C708.004,274.557 719.668,267.501 725.14,258.861C727.732,254.829 727.732,251.085 727.012,249.213C726.148,246.765 723.988,247.341 722.692,249.501C716.932,258.141 706.996,269.229 696.196,269.085C692.308,268.941 689.716,265.053 689.716,258.717C689.716,254.397 691.156,248.493 694.036,242.589C699.796,230.925 709.156,221.565 710.884,223.005C711.46,223.581 710.452,226.173 709.012,229.053C706.42,234.957 705.7,237.837 705.7,239.709C705.7,243.597 708.148,246.333 710.74,247.917C713.62,249.357 714.916,249.069 715.924,246.333C716.5,244.749 717.364,242.589 718.516,240.429C721.252,234.813 723.556,229.485 721.396,224.733C719.092,220.413 713.044,215.517 707.716,215.517Z" style="fill:rgb(30,174,219);fill-rule:nonzero;stroke:rgb(51,51,51);stroke-width:1px;"/>
                <path d="M767.476,185.565C767.476,183.549 766.9,181.677 766.036,179.949C764.452,176.925 762.148,176.925 759.844,179.805C747.172,197.229 726.436,237.837 719.956,256.269C718.516,260.445 718.084,263.613 718.084,265.917C718.084,268.941 718.948,270.957 720.388,272.541C722.116,274.701 724.42,273.981 725.428,271.965C730.036,261.165 733.924,252.381 737.812,245.469C737.812,265.629 746.452,273.981 757.108,274.125C769.348,274.269 776.692,263.901 779.428,258.861C781.588,255.117 781.876,251.517 781.156,249.645C779.86,246.045 777.988,246.333 776.26,249.789C772.228,258.141 764.308,268.221 759.412,268.221C755.092,268.221 751.636,260.301 751.06,249.501C759.556,246.621 765.46,242.589 770.068,238.125C773.668,234.669 775.108,231.069 775.108,227.613C775.108,225.165 774.532,222.861 773.38,220.701C770.212,214.077 766.324,211.773 759.844,214.077C757.396,214.941 754.948,215.949 752.356,217.821C760.996,202.125 767.476,191.181 767.476,185.565ZM765.46,221.133C766.756,223.005 764.164,227.757 758.404,232.509C753.652,236.397 743.572,240.861 739.396,242.301C743.716,235.101 747.748,229.917 752.644,226.173C759.268,221.133 764.308,219.405 765.46,221.133Z" style="fill:rgb(30,174,219);fill-rule:nonzero;stroke:rgb(51,51,51);stroke-width:1px;"/>
                <path d="M798.004,209.037C798.004,213.501 801.892,217.821 806.5,217.821C810.1,217.821 812.26,214.509 812.26,210.621C812.26,206.445 808.372,201.261 804.34,201.261C801.028,201.261 798.004,205.005 798.004,209.037ZM808.66,259.581C810.532,255.837 810.676,252.237 809.38,249.789C808.084,247.197 806.212,246.909 805.06,249.501C800.596,259.293 793.108,268.941 787.348,268.941C785.764,268.941 785.188,267.645 785.188,265.341C785.188,263.037 785.908,260.013 787.204,256.701C789.652,250.941 796.276,240.141 799.012,233.949C802.756,226.749 801.604,220.557 798.868,217.677C796.996,215.517 795.268,215.805 793.108,218.685C787.78,226.173 778.564,242.877 774.964,252.957C773.812,256.701 773.236,259.725 773.236,262.461C773.236,269.661 777.124,274.701 785.908,274.701C794.404,274.701 804.34,268.653 808.66,259.581Z" style="fill:rgb(30,174,219);fill-rule:nonzero;stroke:rgb(51,51,51);stroke-width:1px;"/>
                <path d="M828.532,216.525C827.092,213.933 824.932,213.789 823.06,216.525C814.132,229.917 803.044,250.077 800.308,258.141C799.444,261.021 799.012,263.469 799.012,265.629C799.012,269.085 800.164,271.533 802.18,273.549C804.484,275.853 806.356,274.989 807.364,272.685C813.268,259.725 819.748,245.613 827.668,237.261C835.588,228.333 842.644,224.301 843.94,224.301C844.948,224.301 842.644,228.045 839.62,232.797C834.004,241.725 827.38,254.973 827.38,262.749C827.38,270.237 831.556,275.133 841.204,275.133C849.844,275.133 860.356,267.501 864.388,259.581C866.404,255.693 866.26,251.229 865.108,249.501C863.812,247.485 861.796,247.341 860.356,250.077C855.172,259.725 847.684,269.085 842.788,269.085C840.916,269.085 839.908,267.213 839.908,264.189C839.908,258.861 844.804,249.357 849.412,242.013C854.02,233.949 856.612,229.341 856.612,226.173C856.612,220.701 852.724,215.661 848.548,215.661C843.364,215.661 836.452,220.413 830.26,226.173C830.404,225.309 830.404,224.301 830.404,223.293C830.404,220.989 829.828,218.685 828.532,216.525Z" style="fill:rgb(30,174,219);fill-rule:nonzero;stroke:rgb(51,51,51);stroke-width:1px;"/>
                <path d="M922.564,250.797C922.564,247.629 919.972,247.629 918.1,250.077C912.484,257.853 905.284,263.901 896.356,269.373C901.108,258.429 906.868,247.917 911.476,238.845C915.076,231.645 916.66,227.757 916.66,223.869C916.66,220.845 915.652,218.109 914.356,216.525C912.484,214.365 909.892,214.221 908.164,217.533C907.3,219.117 906.436,220.557 905.86,221.565C904.564,218.109 901.396,215.517 896.644,215.517C882.532,215.517 858.196,239.277 858.196,259.869C858.196,268.509 862.948,274.413 871.156,274.413C875.044,274.413 878.788,272.973 881.956,270.813L880.084,275.565C862.516,281.613 848.548,296.445 848.548,309.405C848.548,313.869 850.708,317.613 852.724,320.637C855.748,324.669 859.348,325.245 862.804,323.949C874.468,318.477 884.98,296.589 892.612,278.013C904.42,273.693 914.356,267.933 919.828,259.437C921.988,256.125 922.564,253.101 922.564,250.797ZM872.884,268.365C871.588,268.365 871.012,266.493 871.012,263.757C871.012,247.053 893.188,224.445 898.084,224.445C899.092,224.445 899.524,225.309 899.524,227.037C899.524,230.781 896.932,237.837 891.316,247.629C884.26,259.725 877.492,268.509 872.884,268.365ZM875.908,285.069C873.172,292.269 870.004,298.605 867.124,303.645C862.66,311.421 859.06,315.741 857.764,314.733C856.324,313.437 858.196,306.669 862.372,299.613C865.396,294.573 869.86,289.389 875.908,285.069Z" style="fill:rgb(30,174,219);fill-rule:nonzero;stroke:rgb(51,51,51);stroke-width:1px;"/>
            </g>
        </g>
    </g>
</svg>
