<svg version="1" xmlns="http://www.w3.org/2000/svg" width="21.333" height="21.333" viewBox="0 0 16.000000 16.000000"><path d="M6.616 2.997c-.068.012-.499.135-.954.264-.456.13-.997.271-1.194.314-.203.05-.376.117-.388.154-.043.123.283.443.535.53l.24.08-.43.738c-.942 1.587-1.859 3.538-2.08 4.412-.13.505-.099.966.08 1.145.135.141.209.049.492-.634.338-.806.788-1.754.83-1.748.056 0 .9 1.034 1.484 1.81.283.369.535.7.566.738.099.11.234-.166.234-.48 0-.425-.252-.899-.966-1.84-.148-.191-.265-.37-.265-.4 0-.025.185-.105.406-.166.228-.068.628-.222.893-.351 1.415-.683 2.264-1.57 2.455-2.554.154-.794-.215-1.662-.83-1.939-.235-.11-.795-.147-1.108-.073zm1.212.929c.53.523-.283 1.84-1.63 2.634-.487.289-1.86.812-1.933.738-.019-.018.166-.369.4-.787.572-.997.88-1.65.917-1.951.018-.142.067-.277.104-.308.056-.043 1.003-.35 1.422-.462.228-.055.603.013.72.136zm3.803 3.126c-.628.08-1.415.16-1.748.179-.338.018-.621.043-.64.055-.037.043.148.37.277.48.228.21.566.301 1.114.301.296 0 .585-.018.646-.043.056-.018.105-.018.105 0 0 .019-.19.351-.419.727-.873 1.433-1.84 3.36-2.197 4.369-.135.375-.166.554-.141.843.025.35.16.622.308.622.03 0 .153-.228.283-.511.455-1.022 1.027-2.142 1.895-3.705.652-1.181.91-1.71.99-2.03.062-.24.112-.438.112-.444.018-.05 1.341-.203 1.723-.203.43 0 .461-.012.461-.13 0-.184-.363-.522-.646-.602-.35-.099-.824-.074-2.123.092z"/></svg>