<?xml version="1.0" standalone="no"?>
<!DOCTYPE svg PUBLIC "-//W3C//DTD SVG 20010904//EN"
 "http://www.w3.org/TR/2001/REC-SVG-20010904/DTD/svg10.dtd">
<svg version="1.0" xmlns="http://www.w3.org/2000/svg"
 width="16.000000pt" height="16.000000pt" viewBox="0 0 16.000000 16.000000"
 preserveAspectRatio="xMidYMid meet">
<metadata>
Created by potrace 1.11, written by Peter Selinger 2001-2013
</metadata>
<g transform="translate(0.000000,16.000000) scale(0.006154,-0.006154)"
fill="#000000" stroke="none">
<path d="M1075 2113 c-11 -2 -81 -22 -155 -43 -74 -21 -162 -44 -194 -51 -33
-8 -61 -19 -63 -25 -7 -20 46 -72 87 -86 l39 -13 -70 -120 c-153 -258 -302
-575 -338 -717 -21 -82 -16 -157 13 -186 22 -23 34 -8 80 103 55 131 128 285
135 284 9 0 146 -168 241 -294 46 -60 87 -114 92 -120 16 -18 38 27 38 78 0
69 -41 146 -157 299 -24 31 -43 60 -43 65 0 4 30 17 66 27 37 11 102 36 145
57 230 111 368 255 399 415 25 129 -35 270 -135 315 -38 18 -129 24 -180 12z
m197 -151 c86 -85 -46 -299 -265 -428 -79 -47 -302 -132 -314 -120 -3 3 27 60
65 128 93 162 143 268 149 317 3 23 11 45 17 50 9 7 163 57 231 75 37 9 98 -2
117 -22z"/>
<path d="M1890 1454 c-102 -13 -230 -26 -284 -29 -55 -3 -101 -7 -104 -9 -6
-7 24 -60 45 -78 37 -34 92 -49 181 -49 48 0 95 3 105 7 9 3 17 3 17 0 0 -3
-31 -57 -68 -118 -142 -233 -299 -546 -357 -710 -22 -61 -27 -90 -23 -137 4
-57 26 -101 50 -101 5 0 25 37 46 83 74 166 167 348 308 602 106 192 148 278
161 330 10 39 18 71 18 72 3 8 218 33 280 33 70 0 75 2 75 21 0 30 -59 85
-105 98 -57 16 -134 12 -345 -15z"/>
</g>
</svg>
