<?xml version="1.0" standalone="no"?>
<!DOCTYPE svg PUBLIC "-//W3C//DTD SVG 20010904//EN"
 "http://www.w3.org/TR/2001/REC-SVG-20010904/DTD/svg10.dtd">
<svg version="1.0" xmlns="http://www.w3.org/2000/svg"
 width="16.000000pt" height="16.000000pt" viewBox="0 0 16.000000 16.000000"
 preserveAspectRatio="xMidYMid meet">
<metadata>
Created by potrace 1.11, written by Peter Selinger 2001-2013
</metadata>
<g transform="translate(0.000000,16.000000) scale(0.005161,-0.005161)"
fill="#000000" stroke="none">
<path d="M1420 3044 c-376 -45 -668 -183 -921 -434 -131 -130 -208 -236 -285
-387 -110 -215 -159 -426 -159 -678 0 -252 49 -463 159 -678 77 -151 154 -257
285 -387 214 -213 455 -343 751 -408 100 -21 140 -24 305 -24 165 0 205 3 305
24 299 65 540 197 756 412 176 177 296 371 368 595 53 167 71 282 71 466 0
252 -49 463 -159 678 -77 151 -154 257 -285 387 -217 216 -469 351 -767 410
-96 19 -346 33 -424 24z m752 -1181 l3 -436 52 -12 c82 -19 118 -47 153 -120
16 -32 20 -62 20 -153 l0 -112 -232 2 -233 3 -3 234 c-1 152 -6 239 -13 248
-17 19 -711 19 -728 0 -7 -9 -12 -96 -13 -248 l-3 -234 -232 -3 -233 -2 0 113
c0 101 3 118 26 165 29 59 72 90 148 107 l51 12 3 436 2 437 615 0 615 0 2
-437z m-1304 70 l-3 -138 -75 0 -75 0 -3 138 -3 137 81 0 81 0 -3 -137z m1530
0 l-3 -138 -75 0 -75 0 -3 138 -3 137 81 0 81 0 -3 -137z m-538 -688 l0 -215
-305 0 -305 0 0 215 0 215 305 0 305 0 0 -215z m678 -297 c8 -8 12 -47 12
-108 0 -61 -4 -100 -12 -108 -17 -17 -1949 -17 -1966 0 -16 16 -16 200 0 216
17 17 1949 17 1966 0z m-1478 -338 l0 -40 -135 0 -135 0 0 40 0 40 135 0 135
0 0 -40z m1260 0 l0 -40 -135 0 -135 0 0 40 0 40 135 0 135 0 0 -40z"/>
<path d="M1032 2168 c-17 -17 -17 -489 0 -506 9 -9 140 -12 529 -12 462 0 518
2 523 16 3 9 6 122 6 253 0 171 -3 240 -12 249 -17 17 -1029 17 -1046 0z m983
-253 l0 -190 -460 0 -460 0 -3 180 c-1 98 0 185 2 192 4 11 96 13 463 11 l458
-3 0 -190z"/>
<path d="M1230 1905 l0 -165 35 0 35 0 0 56 c0 69 15 68 42 -4 19 -51 20 -52
59 -52 21 0 39 1 39 3 0 2 -11 32 -25 67 -23 59 -24 65 -8 82 9 10 18 39 21
66 4 41 0 52 -23 80 -26 31 -30 32 -101 32 l-74 0 0 -165z m120 80 c18 -22 3
-55 -26 -55 -21 0 -24 5 -24 35 0 28 4 35 19 35 10 0 24 -7 31 -15z"/>
<path d="M1663 2063 c-7 -3 -13 -16 -13 -30 0 -20 4 -24 23 -21 13 2 23 11 25
24 3 22 -13 34 -35 27z"/>
<path d="M1490 1980 c-11 -11 -20 -27 -20 -35 0 -18 41 -20 58 -3 7 7 12 8 12
2 0 -6 -15 -17 -32 -25 -27 -11 -34 -20 -36 -50 -4 -46 17 -63 79 -66 l49 -1
0 79 c0 88 -17 119 -65 119 -14 0 -34 -9 -45 -20z m50 -116 c0 -8 -4 -12 -10
-9 -5 3 -10 10 -10 16 0 5 5 9 10 9 6 0 10 -7 10 -16z"/>
<path d="M1772 1984 c-29 -20 -29 -54 -1 -54 21 0 20 -1 -5 -21 -31 -24 -34
-61 -7 -88 14 -14 32 -18 67 -17 l49 1 -3 80 c-3 66 -7 83 -24 98 -25 21 -47
22 -76 1z m48 -44 c0 -5 -4 -10 -10 -10 -5 0 -10 5 -10 10 0 6 5 10 10 10 6 0
10 -4 10 -10z m0 -69 c0 -6 -4 -13 -10 -16 -5 -3 -10 1 -10 9 0 9 5 16 10 16
6 0 10 -4 10 -9z"/>
<path d="M1650 1890 c0 -82 -3 -100 -15 -100 -9 0 -15 -9 -15 -24 0 -40 50
-44 70 -5 6 10 10 65 10 123 l0 106 -25 0 -25 0 0 -100z"/>
<path d="M806 1284 c-12 -11 -16 -36 -16 -95 0 -121 -2 -119 145 -119 68 0
130 3 139 6 13 5 16 24 16 103 0 62 -4 101 -12 109 -8 8 -53 12 -134 12 -98 0
-126 -3 -138 -16z m214 -99 l0 -46 -77 3 c-77 3 -78 3 -81 31 -6 52 1 57 83
57 l75 0 0 -45z"/>
<path d="M2032 1288 c-8 -8 -12 -47 -12 -109 0 -79 3 -98 16 -103 9 -3 71 -6
139 -6 147 0 145 -2 145 119 0 110 -1 111 -154 111 -81 0 -126 -4 -134 -12z
m213 -103 l0 -40 -77 -3 -78 -3 0 46 0 46 78 -3 77 -3 0 -40z"/>
<path d="M1370 1335 l0 -35 185 0 185 0 0 35 0 35 -185 0 -185 0 0 -35z"/>
<path d="M1370 1185 l0 -35 185 0 185 0 0 35 0 35 -185 0 -185 0 0 -35z"/>
</g>
</svg>
