<svg viewBox="0 0 3100 3100" xmlns="http://www.w3.org/2000/svg" fill-rule="evenodd" clip-rule="evenodd" stroke-linejoin="round" stroke-miterlimit="1.414"><g fill="#e3ac40" fill-rule="nonzero"><path d="M1100 1188V995h910v385h-910v-192zm536 158c16-12 20-29 23-106l3-92-28 4-27 3 2 81c2 63-1 83-13 94-35 28 2 43 40 16zm-326-61c0-8-4-15-10-15-5 0-10-14-10-31 0-27 3-30 27-27 21 2 29 10 36 38 10 41 6 36 36 45 22 7 23 5 17-21-4-16-14-42-22-58-10-20-11-33-4-40 14-14 13-59-2-74s-144-16-153-2c-3 6-1 10 4 10 14 0 15 157 1 165-20 12 1 25 41 25 28 0 39-4 39-15zm201 5c13-7 19-7 19 0 0 5 11 10 25 10 23 0 24-2 18-52-10-89-16-98-66-98-40 0-67 13-67 32 0 4 7 8 15 8s15-4 15-10c0-5 11-10 25-10 36 0 34 37-2 46-29 7-63 31-63 45 0 13 31 39 46 39 9 0 24-5 35-10zm249 0c13-7 21-7 25 0 3 5 14 10 25 10 16 0 18-7 13-62-7-85-27-106-82-89-40 12-58 27-47 39 4 3 16 1 26-6 26-16 47-15 54 3 5 15-21 35-47 35-8 0-21 8-30 18-15 16-15 20-1 40 17 24 35 27 64 12zm-100-200c0-5-9-10-19-10-11 0-23 5-26 10-4 6 5 10 19 10s26-4 26-10z"/><path d="M1290 1150c0-28 3-31 28-28 21 2 27 8 27 28s-6 26-27 28c-25 3-28 0-28-28zm197 114c-14-15-6-34 14-34 14 0 19 5 17 17-3 18-20 27-31 17zm250-1c-16-15-6-33 18-33 27 0 32 9 13 28-14 14-22 15-31 5z"/></g><g fill="#ec87a6" fill-rule="nonzero"><path d="M713 2054c-12-31 3-228 20-260 24-46 82-92 124-99 21-4 48-10 60-15l23-9 2-433 3-433h1220l3 433 2 433 23 9c12 5 39 11 60 15 26 4 52 19 81 48 53 51 68 109 64 238l-3 84-227 3-228 2v-238c0-172-3-241-12-250-17-17-729-17-746 0-9 9-12 78-12 250v238H945c-195 0-226-2-232-16zm377-43c13-25 13-167 0-192-10-17-22-19-143-19-90 0-137 4-145 12-16 16-16 190 0 206 8 8 55 12 145 12 121 0 133-2 143-19zm1218 7c16-16 16-190 0-206-8-8-55-12-145-12-156 0-153-2-153 115s-3 115 153 115c90 0 137-4 145-12zm-237-568c18-10 19-24 19-258 0-180-3-251-12-260-17-17-1029-17-1046 0-9 9-12 80-12 260 0 225 2 248 18 257 24 14 1006 15 1033 1z"/><path d="M712 1168l3-133h150l3 133 3 132H709l3-132zm1530 0l3-133h150l3 133 3 132h-162l3-132z"/></g><path d="M792 2493l3-38h260l3 38 3 37H789l3-37zm1260 0l3-38h260l3 38 3 37h-272l3-37zM574 2362c-18-18-20-182-2-200 17-17 1949-17 1966 0 14 14 16 176 2 198-8 13-129 15-981 16-815 0-974-2-985-14zm676-502v-210h610v420h-610v-210zm500 55v-35h-390v70h390v-35zm-2-152l-3-38h-380l-3 23c-8 52-7 52 198 52h191l-3-37zm-878 152v-35h150v70H870v-35zm1220 0v-35h150v70h-150v-35z" fill="#d8d8d8" fill-rule="nonzero"/><g fill="#2f4d54" fill-rule="nonzero"><path d="M710 2591c-5-11-10-45-10-75v-56h-65c-39 0-78-6-95-15-53-28-60-48-60-183 0-68 4-132 10-142 15-28 73-60 109-60h31v-122c0-108 3-129 24-173 27-60 100-127 162-151l44-17v-207h-96c-143 0-134 15-134-218 0-141 3-201 12-210 8-8 48-12 115-12h103V490h90v230h638c483 0 641 3 650 12 8 8 12 48 12 115v103h103c67 0 107 4 115 12 9 9 12 69 12 210 0 233 9 218-134 218h-96v207l44 17c62 24 135 91 162 151 21 44 24 65 24 173v122h31c36 0 94 32 109 60 6 10 10 74 10 142 0 135-7 155-60 183-17 9-56 15-95 15h-65v56c0 98 9 94-224 94-232 0-216 7-216-91v-59h-830v59c0 98 16 91-216 91-191 0-204-1-214-19zm348-98l-3-38H795l-3 38-3 37h272l-3-37zm1260 0l-3-38h-260l-3 38-3 37h272l-3-37zm222-133c14-22 12-184-2-198-17-17-1949-17-1966 0-18 18-16 182 2 200 11 12 170 14 985 14 852-1 973-3 981-16zm-1370-528c0-172 3-241 12-250 17-17 729-17 746 0 9 9 12 78 12 250v238l228-2 227-3 3-84c4-129-11-187-64-238-29-29-55-44-81-48-21-4-48-10-60-15l-23-9-2-433-3-433H945l-3 433-2 433-23 9c-12 5-39 11-60 15-42 7-100 53-124 99-17 32-32 229-20 260 6 14 37 16 232 16h225v-238zm690 28v-210h-610v420h610v-210zm-992-692l-3-133H715l-3 133-3 132h162l-3-132zm1530 0l-3-133h-150l-3 133-3 132h162l-3-132z"/><path d="M802 2018c-16-16-16-190 0-206 8-8 55-12 145-12 156 0 153-2 153 115s3 115-153 115c-90 0-137-4-145-12zm218-103v-35H870v70h150v-35zm1000 96c-5-11-10-54-10-96 0-117-3-115 153-115 90 0 137 4 145 12 16 16 16 190 0 206-8 8-55 12-145 12-121 0-133-2-143-19zm220-96v-35h-150v70h150v-35zm-1202-466c-16-9-18-32-18-257 0-180 3-251 12-260 17-17 1029-17 1046 0 9 9 12 80 12 260 0 234-1 248-19 258-27 14-1009 13-1033-1zm972-261V995h-910v385h910v-192z"/><path d="M1580 1351c0-5 7-14 16-21 12-11 15-31 13-94l-2-81 27-3 28-4-3 92c-3 77-7 94-23 106-22 16-56 19-56 5zm-355-60c-3-5-1-12 5-16 14-8 13-165-1-165-5 0-7-4-4-10 9-14 138-13 153 2s16 60 2 74c-7 7-6 20 4 40 8 16 18 42 22 58 6 26 5 28-17 21-30-9-26-4-36-45-7-28-15-36-36-38-24-3-27 0-27 27 0 17 5 31 10 31 6 0 10 7 10 15 0 11-11 15-39 15-22 0-42-4-46-9zm120-141c0-20-6-26-27-28-25-3-28 0-28 28s3 31 28 28c21-2 27-8 27-28zm101 134c-9-8-16-19-16-23 0-14 34-38 63-45 36-9 38-46 2-46-14 0-25 5-25 10 0 6-7 10-15 10s-15-4-15-8c0-19 27-32 67-32 50 0 56 9 66 98 6 50 5 52-18 52-14 0-25-5-25-10 0-7-6-7-19 0-27 14-47 13-65-6zm72-37c2-12-3-17-17-17-12 0-21 6-21 13 0 31 32 34 38 4zm178 31c-14-20-14-24 1-40 9-10 22-18 30-18 26 0 52-20 47-35-7-18-28-19-54-3-10 7-22 9-26 6-11-12 7-27 47-39 55-17 75 4 82 89 5 55 3 62-13 62-11 0-22-5-25-10-4-7-12-7-25 0-29 15-47 12-64-12zm72-20c19-19 14-28-13-28-24 0-34 18-18 33 9 10 17 9 31-5zm-153-168c3-5 15-10 26-10 10 0 19 5 19 10 0 6-12 10-26 10s-23-4-19-10zm-255 825v-35h390v70h-390v-35zm4-129c-3-8-4-25-2-38l3-23h380l3 38 3 37h-191c-156 0-192-3-196-14z"/></g></svg>