<svg viewBox="0 0 908 326" xmlns="http://www.w3.org/2000/svg" fill-rule="evenodd" clip-rule="evenodd" stroke-linejoin="round" stroke-miterlimit="1.414"><path fill="none" d="M0 0h907.759v325.247H0z"/><path d="M93.086 201.35c.864-1.44 1.44-3.169 1.44-4.897 0-2.304-.72-5.04-2.016-7.488-2.736-5.328-7.632-12.24-12.816-18.432 15.696-4.032 30.528-12.816 37.872-22.752 5.328-7.344 8.352-15.552 4.464-25.2-3.6-9.072-10.656-12.24-18.288-11.952-5.328.288-10.368 1.728-15.84 3.456-5.184 1.728-10.656 3.312-16.416 4.176-3.024.432-3.744 1.584-2.592 3.6 1.728 3.024 3.744 5.04 8.496 5.904-12.672 19.728-25.344 45.936-28.944 58.464-.72 2.592-1.008 5.184-1.008 7.2 0 3.6 1.152 5.904 2.736 7.632 2.16 2.16 3.744 1.872 4.752-.864 4.32-10.656 8.064-18.864 11.664-25.92 5.76 6.48 12.672 15.696 21.6 27.504 1.728 2.304 3.312 2.016 4.896-.432zm2.016-76.32c4.608-1.585 10.08-3.457 13.392-3.457 2.16 0 3.744.72 4.608 3.024 3.744 9.504-10.368 28.512-39.168 35.856 2.592-4.464 6.192-10.512 10.08-17.712 3.6-6.768 5.328-11.808 5.472-15.84l5.616-1.872zm16.416 41.183c-5.184 7.2-7.776 15.264-7.776 21.456 0 8.496 4.608 14.688 13.104 14.688 5.76 0 12.24-4.464 16.416-8.496 1.152 5.328 5.328 9.072 12.528 9.072 8.784 0 18-7.632 21.744-15.552 2.016-4.176 1.152-8.064.576-9.36-1.44-3.024-2.736-2.88-4.32 0-4.752 9.36-11.952 19.152-17.136 19.152-1.44 0-2.016-1.296-2.016-3.456 0-9.648 12.096-25.344 15.84-33.264 3.744-7.488 2.448-13.824 0-16.704-1.728-2.016-4.176-1.872-5.904 1.008l-2.736 4.464c-1.296-3.744-4.464-6.336-9.648-6.336-7.344 0-19.152 6.768-30.672 23.328zm7.2 29.808c-1.44 0-2.016-1.728-2.016-4.32 0-4.608 2.448-12.24 6.768-19.008 7.344-11.808 17.28-20.88 20.16-20.88 1.44 0 1.728 1.008 1.728 2.736 0 3.744-2.592 10.8-8.208 20.592-7.056 12.096-13.68 20.88-18.432 20.88z" fill="none"/><path d="M197.774 133.67c-2.16-4.897-7.488-6.769-10.512-3.313-1.584 1.584-2.448 3.6-2.448 5.904 0 1.584.432 3.456 1.44 5.184 2.592 4.752 7.92 5.04 10.368 2.16 1.296-1.44 2.304-3.456 2.304-5.616a9.35 9.35 0 0 0-1.152-4.464v.144zm-11.808 27.647c1.728-3.456 2.304-6.768 2.304-9.504 0-2.88-.72-5.184-2.16-6.768-2.016-2.016-3.888-1.872-5.76 1.008-7.632 11.808-20.448 37.872-29.664 60.336-14.112 5.472-26.496 14.4-30.672 26.928-.864 2.592-1.296 4.752-1.296 6.336 0 4.752 2.592 10.08 4.608 13.104 3.168 4.32 6.768 4.464 9.936 3.168 11.52-5.184 22.32-28.8 30.24-47.232 12.528-5.472 24.048-12.24 29.376-21.888 2.16-3.888 2.592-7.488 2.16-8.928-1.008-3.168-3.456-2.736-5.04-.288-5.328 7.776-12.24 15.84-22.608 22.032 3.312-7.344 7.488-15.696 11.232-23.184a402.39 402.39 0 0 0 7.344-15.12zM147.95 214.31c-3.744 7.056-7.056 13.536-9.936 18.72-5.616 10.08-9.504 15.84-10.8 14.112-1.584-2.016.288-9.36 5.616-17.424 3.456-5.328 8.496-10.944 15.12-15.408z" fill="none"/><path d="M195.758 166.213c-5.184 7.2-7.776 15.264-7.776 21.456 0 8.496 4.608 14.688 13.104 14.688 5.76 0 12.24-4.464 16.416-8.496 1.152 5.328 5.328 9.072 12.528 9.072 8.784 0 18-7.632 21.744-15.552 2.016-4.176 1.152-8.064.576-9.36-1.44-3.024-2.736-2.88-4.32 0-4.752 9.36-11.952 19.152-17.136 19.152-1.44 0-2.016-1.296-2.016-3.456 0-9.648 12.096-25.344 15.84-33.264 3.744-7.488 2.448-13.824 0-16.704-1.728-2.016-4.176-1.872-5.904 1.008l-2.736 4.464c-1.296-3.744-4.464-6.336-9.648-6.336-7.344 0-19.152 6.768-30.672 23.328zm7.2 29.808c-1.44 0-2.016-1.728-2.016-4.32 0-4.608 2.448-12.24 6.768-19.008 7.344-11.808 17.28-20.88 20.16-20.88 1.44 0 1.728 1.008 1.728 2.736 0 3.744-2.592 10.8-8.208 20.592-7.056 12.096-13.68 20.88-18.432 20.88zm81.792-3.024c0 3.6.864 5.904 3.024 7.92 2.016 2.016 3.744 1.872 4.896-.72 8.352-18.864 18.72-38.016 26.208-51.552 6.192-10.8 10.368-19.152 10.224-24.336 7.776-1.296 16.128-2.592 22.32-1.872 3.312.288 3.888-1.44 3.168-3.168-2.16-6.048-8.208-7.776-14.832-7.776-8.352 0-31.392 3.888-43.92 3.888-2.016 0-3.168.864-2.736 2.736 1.584 5.616 7.776 8.928 17.136 8.928 2.016 0 4.032-.288 6.192-.576-12.672 19.584-27.216 48.816-30.816 60.768-.576 1.872-.864 4.032-.864 5.76z" fill="none"/><path d="M339.614 137.413c-4.464 0-13.68 10.224-13.68 17.568 0 1.872 1.008 3.744 2.736 5.328-7.92 9.792-15.264 21.6-17.712 26.208-2.016 3.744-3.024 7.2-3.024 10.368s1.152 6.192 3.6 8.496c2.592 2.736 4.464 1.44 5.04-1.152 2.016-9.936 10.224-23.184 21.024-41.904 3.168-.144 6.768-.72 10.512-2.304-7.2 8.784-14.832 19.872-14.832 29.088 0 7.776 4.752 13.968 13.536 13.968 8.208 0 16.704-6.192 20.16-14.4 1.584-3.888 1.44-7.344.432-9.36-1.296-2.592-3.312-2.448-4.464.144-4.464 9.936-10.224 18-15.12 18-2.016 0-3.168-2.304-3.168-6.048 0-8.496 8.208-19.872 15.984-28.8 1.584-1.872 2.304-3.888 2.304-5.616 0-3.456-2.16-7.2-4.176-9.216-1.872-1.872-3.312-1.584-5.76.144-4.32 3.168-8.208 5.184-11.664 6.048 1.584-4.608 2.592-8.784 2.592-11.52 0-3.312-1.296-5.04-4.32-5.04z" fill="none"/><path d="M425.438 187.381c2.16-4.176 1.584-8.352 1.008-9.648-1.152-2.736-3.6-2.304-5.04.144-5.184 9.072-12.528 19.008-17.28 19.008-1.872 0-2.736-1.44-2.736-4.032 0-5.616 5.616-15.408 9.792-22.176 5.04-8.352 8.064-14.688 8.064-19.584 0-3.168-.72-5.472-2.16-7.488-1.728-2.448-4.032-1.872-6.048.864-5.184 6.624-8.928 16.416-17.424 30.24-7.344 11.52-14.976 21.312-18.72 21.312-3.168 0-2.736-5.328-.144-11.088 5.04-11.088 15.552-27.792 15.552-33.696 0-2.16-.576-4.608-2.16-6.624-1.728-2.16-4.32-2.448-6.192 0-8.928 12.528-16.272 26.928-19.44 36-1.296 3.456-1.872 6.768-1.872 9.936 0 6.192 2.88 11.664 10.224 11.664s13.824-4.464 18.72-9.936c.576 6.48 4.896 10.656 13.392 10.656 8.928 0 18.288-7.344 22.464-15.552z" fill="none"/><path d="M451.07 143.317c-8.352 0-19.728 7.776-27.072 22.608-3.024 5.76-4.464 11.52-4.464 16.704 0 11.52 7.344 20.016 20.592 19.872 11.232-.144 22.896-7.2 28.368-15.84 2.592-4.032 2.592-7.776 1.872-9.648-.864-2.448-3.024-1.872-4.32.288-5.76 8.64-15.696 19.728-26.496 19.584-3.888-.144-6.48-4.032-6.48-10.368 0-4.32 1.44-10.224 4.32-16.128 5.76-11.664 15.12-21.024 16.848-19.584.576.576-.432 3.168-1.872 6.048-2.592 5.904-3.312 8.784-3.312 10.656 0 3.888 2.448 6.624 5.04 8.208 2.88 1.44 4.176 1.152 5.184-1.584.576-1.584 1.44-3.744 2.592-5.904 2.736-5.616 5.04-10.944 2.88-15.696-2.304-4.32-8.352-9.216-13.68-9.216z" fill="none"/><path d="M510.83 113.365c0-2.016-.576-3.888-1.44-5.616-1.584-3.024-3.888-3.024-6.192-.144-12.672 17.424-33.408 58.032-39.888 76.464-1.44 4.176-1.872 7.344-1.872 9.648 0 3.024.864 5.04 2.304 6.624 1.728 2.16 4.032 1.44 5.04-.576 4.608-10.8 8.496-19.584 12.384-26.496 0 20.16 8.64 28.512 19.296 28.656 12.24.144 19.584-10.224 22.32-15.264 2.16-3.744 2.448-7.344 1.728-9.216-1.296-3.6-3.168-3.312-4.896.144-4.032 8.352-11.952 18.432-16.848 18.432-4.32 0-7.776-7.92-8.352-18.72 8.496-2.88 14.4-6.912 19.008-11.376 3.6-3.456 5.04-7.056 5.04-10.512 0-2.448-.576-4.752-1.728-6.912-3.168-6.624-7.056-8.928-13.536-6.624-2.448.864-4.896 1.872-7.488 3.744 8.64-15.696 15.12-26.64 15.12-32.256zm-2.016 35.568c1.296 1.872-1.296 6.624-7.056 11.376-4.752 3.888-14.832 8.352-19.008 9.792 4.32-7.2 8.352-12.384 13.248-16.128 6.624-5.04 11.664-6.768 12.816-5.04z" fill="none"/><path d="M541.358 136.837c0 4.464 3.888 8.784 8.496 8.784 3.6 0 5.76-3.312 5.76-7.2 0-4.176-3.888-9.36-7.92-9.36-3.312 0-6.336 3.744-6.336 7.776zm10.656 50.544c1.872-3.744 2.016-7.344.72-9.792-1.296-2.592-3.168-2.88-4.32-.288-4.464 9.792-11.952 19.44-17.712 19.44-1.584 0-2.16-1.296-2.16-3.6 0-2.304.72-5.328 2.016-8.64 2.448-5.76 9.072-16.56 11.808-22.752 3.744-7.2 2.592-13.392-.144-16.272-1.872-2.16-3.6-1.872-5.76 1.008-5.328 7.488-14.544 24.192-18.144 34.272-1.152 3.744-1.728 6.768-1.728 9.504 0 7.2 3.888 12.24 12.672 12.24 8.496 0 18.432-6.048 22.752-15.12z" fill="none"/><path d="M571.886 144.325c-1.44-2.592-3.6-2.736-5.472 0-8.928 13.392-20.016 33.552-22.752 41.616-.864 2.88-1.296 5.328-1.296 7.488 0 3.456 1.152 5.904 3.168 7.92 2.304 2.304 4.176 1.44 5.184-.864 5.904-12.96 12.384-27.072 20.304-35.424 7.92-8.928 14.976-12.96 16.272-12.96 1.008 0-1.296 3.744-4.32 8.496-5.616 8.928-12.24 22.176-12.24 29.952 0 7.488 4.176 12.384 13.824 12.384 8.64 0 19.152-7.632 23.184-15.552 2.016-3.888 1.872-8.352.72-10.08-1.296-2.016-3.312-2.16-4.752.576-5.184 9.648-12.672 19.008-17.568 19.008-1.872 0-2.88-1.872-2.88-4.896 0-5.328 4.896-14.832 9.504-22.176 4.608-8.064 7.2-12.672 7.2-15.84 0-5.472-3.888-10.512-8.064-10.512-5.184 0-12.096 4.752-18.288 10.512.144-.864.144-1.872.144-2.88 0-2.304-.576-4.608-1.872-6.768z" fill="none"/><path d="M665.918 178.597c0-3.168-2.592-3.168-4.464-.72-5.616 7.776-12.816 13.824-21.744 19.296 4.752-10.944 10.512-21.456 15.12-30.528 3.6-7.2 5.184-11.088 5.184-14.976 0-3.024-1.008-5.76-2.304-7.344-1.872-2.16-4.464-2.304-6.192 1.008-.864 1.584-1.728 3.024-2.304 4.032-1.296-3.456-4.464-6.048-9.216-6.048-14.112 0-38.448 23.76-38.448 44.352 0 8.64 4.752 14.544 12.96 14.544 3.888 0 7.632-1.44 10.8-3.6l-1.872 4.752c-17.568 6.048-31.536 20.88-31.536 33.84 0 4.464 2.16 8.208 4.176 11.232 3.024 4.032 6.624 4.608 10.08 3.312 11.664-5.472 22.176-27.36 29.808-45.936 11.808-4.32 21.744-10.08 27.216-18.576 2.16-3.312 2.736-6.336 2.736-8.64zm-49.68 17.568c-1.296 0-1.872-1.872-1.872-4.608 0-16.704 22.176-39.312 27.072-39.312 1.008 0 1.44.864 1.44 2.592 0 3.744-2.592 10.8-8.208 20.592-7.056 12.096-13.824 20.88-18.432 20.736zm3.024 16.704a133.152 133.152 0 0 1-8.784 18.576c-4.464 7.776-8.064 12.096-9.36 11.088-1.44-1.296.432-8.064 4.608-15.12 3.024-5.04 7.488-10.224 13.536-14.544zm48.384-5.184c.864.288 1.728.576 2.736.576 5.328.144 11.52-4.608 13.248-9.936 1.872-5.616-1.008-10.512-5.184-10.656-3.744 0-7.776 2.736-8.928 7.344-.576 2.88.432 5.184 2.16 6.768-1.008.72-3.024 2.016-4.032 2.592-1.296.72-2.16 2.448 0 3.312zm85.608-50.584c2.35-4.136 3.196-7.426 3.196-9.776 0-1.504-.376-2.914-.846-3.854-.94-1.692-2.068-2.35-3.572-.282-5.828 7.896-21.338 36.096-25.85 47.564-.94 2.538-.94 4.042-.282 5.734.376 1.034 1.598 2.726 2.538 4.042 1.316 1.88 2.538 1.88 5.264 1.222 5.358-1.41 15.416-3.76 19.834-3.666 2.162 0 2.35-.94 1.88-2.068-1.222-2.914-3.948-4.888-9.118-4.512-3.384.282-7.896.94-12.502 2.068 5.17-10.998 11.28-21.526 19.458-36.472zm33.18 0c2.35-4.136 3.196-7.426 3.196-9.776 0-1.504-.376-2.914-.846-3.854-.94-1.692-2.068-2.35-3.572-.282-5.828 7.896-21.338 36.096-25.85 47.564-.94 2.538-.94 4.042-.282 5.734.376 1.034 1.598 2.726 2.538 4.042 1.316 1.88 2.538 1.88 5.264 1.222 5.358-1.41 15.416-3.76 19.834-3.666 2.162 0 2.35-.94 1.88-2.068-1.222-2.914-3.948-4.888-9.118-4.512-3.384.282-7.896.94-12.502 2.068 5.17-10.998 11.28-21.526 19.458-36.472z" fill="none"/><path d="M821.114 180.507c-5.452 10.434-12.126 16.45-17.296 16.45-3.384 0-6.956-3.572-6.956-11.656 0-5.64 1.786-13.348 5.922-20.022 7.802-12.596 21.15-20.774 23.406-18.33 1.128 1.222 0 4.23-1.316 7.52-.564 1.41-1.222 2.914-1.598 4.324-.376 1.222-.564 2.35-.564 3.478 0 2.726 1.316 4.794 3.196 6.016 1.88 1.128 3.196.188 3.666-1.41.658-2.068 1.974-5.264 3.572-8.46.94-1.88 1.316-3.76 1.316-5.452 0-3.666-2.444-7.332-5.64-10.152-1.598-1.316-3.76-1.974-6.11-1.974-2.35 0-4.982.658-7.426 1.598-10.622 4.794-27.448 21.808-27.072 40.796.188 7.708 4.042 13.63 8.46 15.98 2.35 1.316 5.17 1.974 8.272 1.974 4.042 0 8.272-1.128 12.126-3.854 3.384-2.538 8.46-7.99 8.46-13.442a7.68 7.68 0 0 0-.658-3.102c-.94-2.162-3.102-1.598-3.76-.282z" fill="none"/><path d="M93.086 201.35c.864-1.44 1.44-3.169 1.44-4.897 0-2.304-.72-5.04-2.016-7.488-2.736-5.328-7.632-12.24-12.816-18.432 15.696-4.032 30.528-12.816 37.872-22.752 5.328-7.344 8.352-15.552 4.464-25.2-3.6-9.072-10.656-12.24-18.288-11.952-5.328.288-10.368 1.728-15.84 3.456-5.184 1.728-10.656 3.312-16.416 4.176-3.024.432-3.744 1.584-2.592 3.6 1.728 3.024 3.744 5.04 8.496 5.904-12.672 19.728-25.344 45.936-28.944 58.464-.72 2.592-1.008 5.184-1.008 7.2 0 3.6 1.152 5.904 2.736 7.632 2.16 2.16 3.744 1.872 4.752-.864 4.32-10.656 8.064-18.864 11.664-25.92 5.76 6.48 12.672 15.696 21.6 27.504 1.728 2.304 3.312 2.016 4.896-.432zm2.016-76.32c4.608-1.585 10.08-3.457 13.392-3.457 2.16 0 3.744.72 4.608 3.024 3.744 9.504-10.368 28.512-39.168 35.856 2.592-4.464 6.192-10.512 10.08-17.712 3.6-6.768 5.328-11.808 5.472-15.84l5.616-1.872zm16.416 41.183c-5.184 7.2-7.776 15.264-7.776 21.456 0 8.496 4.608 14.688 13.104 14.688 5.76 0 12.24-4.464 16.416-8.496 1.152 5.328 5.328 9.072 12.528 9.072 8.784 0 18-7.632 21.744-15.552 2.016-4.176 1.152-8.064.576-9.36-1.44-3.024-2.736-2.88-4.32 0-4.752 9.36-11.952 19.152-17.136 19.152-1.44 0-2.016-1.296-2.016-3.456 0-9.648 12.096-25.344 15.84-33.264 3.744-7.488 2.448-13.824 0-16.704-1.728-2.016-4.176-1.872-5.904 1.008l-2.736 4.464c-1.296-3.744-4.464-6.336-9.648-6.336-7.344 0-19.152 6.768-30.672 23.328zm7.2 29.808c-1.44 0-2.016-1.728-2.016-4.32 0-4.608 2.448-12.24 6.768-19.008 7.344-11.808 17.28-20.88 20.16-20.88 1.44 0 1.728 1.008 1.728 2.736 0 3.744-2.592 10.8-8.208 20.592-7.056 12.096-13.68 20.88-18.432 20.88z" fill="#fff" fill-rule="nonzero" stroke="#8c8c8c"/><path d="M197.774 133.67c-2.16-4.897-7.488-6.769-10.512-3.313-1.584 1.584-2.448 3.6-2.448 5.904 0 1.584.432 3.456 1.44 5.184 2.592 4.752 7.92 5.04 10.368 2.16 1.296-1.44 2.304-3.456 2.304-5.616a9.35 9.35 0 0 0-1.152-4.464v.144zm-11.808 27.647c1.728-3.456 2.304-6.768 2.304-9.504 0-2.88-.72-5.184-2.16-6.768-2.016-2.016-3.888-1.872-5.76 1.008-7.632 11.808-20.448 37.872-29.664 60.336-14.112 5.472-26.496 14.4-30.672 26.928-.864 2.592-1.296 4.752-1.296 6.336 0 4.752 2.592 10.08 4.608 13.104 3.168 4.32 6.768 4.464 9.936 3.168 11.52-5.184 22.32-28.8 30.24-47.232 12.528-5.472 24.048-12.24 29.376-21.888 2.16-3.888 2.592-7.488 2.16-8.928-1.008-3.168-3.456-2.736-5.04-.288-5.328 7.776-12.24 15.84-22.608 22.032 3.312-7.344 7.488-15.696 11.232-23.184a402.39 402.39 0 0 0 7.344-15.12zM147.95 214.31c-3.744 7.056-7.056 13.536-9.936 18.72-5.616 10.08-9.504 15.84-10.8 14.112-1.584-2.016.288-9.36 5.616-17.424 3.456-5.328 8.496-10.944 15.12-15.408z" fill="#fff" fill-rule="nonzero" stroke="#8c8c8c"/><path d="M195.758 166.213c-5.184 7.2-7.776 15.264-7.776 21.456 0 8.496 4.608 14.688 13.104 14.688 5.76 0 12.24-4.464 16.416-8.496 1.152 5.328 5.328 9.072 12.528 9.072 8.784 0 18-7.632 21.744-15.552 2.016-4.176 1.152-8.064.576-9.36-1.44-3.024-2.736-2.88-4.32 0-4.752 9.36-11.952 19.152-17.136 19.152-1.44 0-2.016-1.296-2.016-3.456 0-9.648 12.096-25.344 15.84-33.264 3.744-7.488 2.448-13.824 0-16.704-1.728-2.016-4.176-1.872-5.904 1.008l-2.736 4.464c-1.296-3.744-4.464-6.336-9.648-6.336-7.344 0-19.152 6.768-30.672 23.328zm7.2 29.808c-1.44 0-2.016-1.728-2.016-4.32 0-4.608 2.448-12.24 6.768-19.008 7.344-11.808 17.28-20.88 20.16-20.88 1.44 0 1.728 1.008 1.728 2.736 0 3.744-2.592 10.8-8.208 20.592-7.056 12.096-13.68 20.88-18.432 20.88zm81.792-3.024c0 3.6.864 5.904 3.024 7.92 2.016 2.016 3.744 1.872 4.896-.72 8.352-18.864 18.72-38.016 26.208-51.552 6.192-10.8 10.368-19.152 10.224-24.336 7.776-1.296 16.128-2.592 22.32-1.872 3.312.288 3.888-1.44 3.168-3.168-2.16-6.048-8.208-7.776-14.832-7.776-8.352 0-31.392 3.888-43.92 3.888-2.016 0-3.168.864-2.736 2.736 1.584 5.616 7.776 8.928 17.136 8.928 2.016 0 4.032-.288 6.192-.576-12.672 19.584-27.216 48.816-30.816 60.768-.576 1.872-.864 4.032-.864 5.76z" fill="#fff" fill-rule="nonzero" stroke="#8c8c8c"/><path d="M339.614 137.413c-4.464 0-13.68 10.224-13.68 17.568 0 1.872 1.008 3.744 2.736 5.328-7.92 9.792-15.264 21.6-17.712 26.208-2.016 3.744-3.024 7.2-3.024 10.368s1.152 6.192 3.6 8.496c2.592 2.736 4.464 1.44 5.04-1.152 2.016-9.936 10.224-23.184 21.024-41.904 3.168-.144 6.768-.72 10.512-2.304-7.2 8.784-14.832 19.872-14.832 29.088 0 7.776 4.752 13.968 13.536 13.968 8.208 0 16.704-6.192 20.16-14.4 1.584-3.888 1.44-7.344.432-9.36-1.296-2.592-3.312-2.448-4.464.144-4.464 9.936-10.224 18-15.12 18-2.016 0-3.168-2.304-3.168-6.048 0-8.496 8.208-19.872 15.984-28.8 1.584-1.872 2.304-3.888 2.304-5.616 0-3.456-2.16-7.2-4.176-9.216-1.872-1.872-3.312-1.584-5.76.144-4.32 3.168-8.208 5.184-11.664 6.048 1.584-4.608 2.592-8.784 2.592-11.52 0-3.312-1.296-5.04-4.32-5.04z" fill="#fff" fill-rule="nonzero" stroke="#8c8c8c"/><path d="M425.438 187.381c2.16-4.176 1.584-8.352 1.008-9.648-1.152-2.736-3.6-2.304-5.04.144-5.184 9.072-12.528 19.008-17.28 19.008-1.872 0-2.736-1.44-2.736-4.032 0-5.616 5.616-15.408 9.792-22.176 5.04-8.352 8.064-14.688 8.064-19.584 0-3.168-.72-5.472-2.16-7.488-1.728-2.448-4.032-1.872-6.048.864-5.184 6.624-8.928 16.416-17.424 30.24-7.344 11.52-14.976 21.312-18.72 21.312-3.168 0-2.736-5.328-.144-11.088 5.04-11.088 15.552-27.792 15.552-33.696 0-2.16-.576-4.608-2.16-6.624-1.728-2.16-4.32-2.448-6.192 0-8.928 12.528-16.272 26.928-19.44 36-1.296 3.456-1.872 6.768-1.872 9.936 0 6.192 2.88 11.664 10.224 11.664s13.824-4.464 18.72-9.936c.576 6.48 4.896 10.656 13.392 10.656 8.928 0 18.288-7.344 22.464-15.552z" fill="#fff" fill-rule="nonzero" stroke="#8c8c8c"/><path d="M451.07 143.317c-8.352 0-19.728 7.776-27.072 22.608-3.024 5.76-4.464 11.52-4.464 16.704 0 11.52 7.344 20.016 20.592 19.872 11.232-.144 22.896-7.2 28.368-15.84 2.592-4.032 2.592-7.776 1.872-9.648-.864-2.448-3.024-1.872-4.32.288-5.76 8.64-15.696 19.728-26.496 19.584-3.888-.144-6.48-4.032-6.48-10.368 0-4.32 1.44-10.224 4.32-16.128 5.76-11.664 15.12-21.024 16.848-19.584.576.576-.432 3.168-1.872 6.048-2.592 5.904-3.312 8.784-3.312 10.656 0 3.888 2.448 6.624 5.04 8.208 2.88 1.44 4.176 1.152 5.184-1.584.576-1.584 1.44-3.744 2.592-5.904 2.736-5.616 5.04-10.944 2.88-15.696-2.304-4.32-8.352-9.216-13.68-9.216z" fill="#fff" fill-rule="nonzero" stroke="#8c8c8c"/><path d="M510.83 113.365c0-2.016-.576-3.888-1.44-5.616-1.584-3.024-3.888-3.024-6.192-.144-12.672 17.424-33.408 58.032-39.888 76.464-1.44 4.176-1.872 7.344-1.872 9.648 0 3.024.864 5.04 2.304 6.624 1.728 2.16 4.032 1.44 5.04-.576 4.608-10.8 8.496-19.584 12.384-26.496 0 20.16 8.64 28.512 19.296 28.656 12.24.144 19.584-10.224 22.32-15.264 2.16-3.744 2.448-7.344 1.728-9.216-1.296-3.6-3.168-3.312-4.896.144-4.032 8.352-11.952 18.432-16.848 18.432-4.32 0-7.776-7.92-8.352-18.72 8.496-2.88 14.4-6.912 19.008-11.376 3.6-3.456 5.04-7.056 5.04-10.512 0-2.448-.576-4.752-1.728-6.912-3.168-6.624-7.056-8.928-13.536-6.624-2.448.864-4.896 1.872-7.488 3.744 8.64-15.696 15.12-26.64 15.12-32.256zm-2.016 35.568c1.296 1.872-1.296 6.624-7.056 11.376-4.752 3.888-14.832 8.352-19.008 9.792 4.32-7.2 8.352-12.384 13.248-16.128 6.624-5.04 11.664-6.768 12.816-5.04z" fill="#fff" fill-rule="nonzero" stroke="#8c8c8c"/><path d="M541.358 136.837c0 4.464 3.888 8.784 8.496 8.784 3.6 0 5.76-3.312 5.76-7.2 0-4.176-3.888-9.36-7.92-9.36-3.312 0-6.336 3.744-6.336 7.776zm10.656 50.544c1.872-3.744 2.016-7.344.72-9.792-1.296-2.592-3.168-2.88-4.32-.288-4.464 9.792-11.952 19.44-17.712 19.44-1.584 0-2.16-1.296-2.16-3.6 0-2.304.72-5.328 2.016-8.64 2.448-5.76 9.072-16.56 11.808-22.752 3.744-7.2 2.592-13.392-.144-16.272-1.872-2.16-3.6-1.872-5.76 1.008-5.328 7.488-14.544 24.192-18.144 34.272-1.152 3.744-1.728 6.768-1.728 9.504 0 7.2 3.888 12.24 12.672 12.24 8.496 0 18.432-6.048 22.752-15.12z" fill="#fff" fill-rule="nonzero" stroke="#8c8c8c"/><path d="M571.886 144.325c-1.44-2.592-3.6-2.736-5.472 0-8.928 13.392-20.016 33.552-22.752 41.616-.864 2.88-1.296 5.328-1.296 7.488 0 3.456 1.152 5.904 3.168 7.92 2.304 2.304 4.176 1.44 5.184-.864 5.904-12.96 12.384-27.072 20.304-35.424 7.92-8.928 14.976-12.96 16.272-12.96 1.008 0-1.296 3.744-4.32 8.496-5.616 8.928-12.24 22.176-12.24 29.952 0 7.488 4.176 12.384 13.824 12.384 8.64 0 19.152-7.632 23.184-15.552 2.016-3.888 1.872-8.352.72-10.08-1.296-2.016-3.312-2.16-4.752.576-5.184 9.648-12.672 19.008-17.568 19.008-1.872 0-2.88-1.872-2.88-4.896 0-5.328 4.896-14.832 9.504-22.176 4.608-8.064 7.2-12.672 7.2-15.84 0-5.472-3.888-10.512-8.064-10.512-5.184 0-12.096 4.752-18.288 10.512.144-.864.144-1.872.144-2.88 0-2.304-.576-4.608-1.872-6.768z" fill="#fff" fill-rule="nonzero" stroke="#8c8c8c"/><path d="M665.918 178.597c0-3.168-2.592-3.168-4.464-.72-5.616 7.776-12.816 13.824-21.744 19.296 4.752-10.944 10.512-21.456 15.12-30.528 3.6-7.2 5.184-11.088 5.184-14.976 0-3.024-1.008-5.76-2.304-7.344-1.872-2.16-4.464-2.304-6.192 1.008-.864 1.584-1.728 3.024-2.304 4.032-1.296-3.456-4.464-6.048-9.216-6.048-14.112 0-38.448 23.76-38.448 44.352 0 8.64 4.752 14.544 12.96 14.544 3.888 0 7.632-1.44 10.8-3.6l-1.872 4.752c-17.568 6.048-31.536 20.88-31.536 33.84 0 4.464 2.16 8.208 4.176 11.232 3.024 4.032 6.624 4.608 10.08 3.312 11.664-5.472 22.176-27.36 29.808-45.936 11.808-4.32 21.744-10.08 27.216-18.576 2.16-3.312 2.736-6.336 2.736-8.64zm-49.68 17.568c-1.296 0-1.872-1.872-1.872-4.608 0-16.704 22.176-39.312 27.072-39.312 1.008 0 1.44.864 1.44 2.592 0 3.744-2.592 10.8-8.208 20.592-7.056 12.096-13.824 20.88-18.432 20.736zm3.024 16.704a133.152 133.152 0 0 1-8.784 18.576c-4.464 7.776-8.064 12.096-9.36 11.088-1.44-1.296.432-8.064 4.608-15.12 3.024-5.04 7.488-10.224 13.536-14.544zm48.384-5.184c.864.288 1.728.576 2.736.576 5.328.144 11.52-4.608 13.248-9.936 1.872-5.616-1.008-10.512-5.184-10.656-3.744 0-7.776 2.736-8.928 7.344-.576 2.88.432 5.184 2.16 6.768-1.008.72-3.024 2.016-4.032 2.592-1.296.72-2.16 2.448 0 3.312zm85.608-50.584c2.35-4.136 3.196-7.426 3.196-9.776 0-1.504-.376-2.914-.846-3.854-.94-1.692-2.068-2.35-3.572-.282-5.828 7.896-21.338 36.096-25.85 47.564-.94 2.538-.94 4.042-.282 5.734.376 1.034 1.598 2.726 2.538 4.042 1.316 1.88 2.538 1.88 5.264 1.222 5.358-1.41 15.416-3.76 19.834-3.666 2.162 0 2.35-.94 1.88-2.068-1.222-2.914-3.948-4.888-9.118-4.512-3.384.282-7.896.94-12.502 2.068 5.17-10.998 11.28-21.526 19.458-36.472zm33.18 0c2.35-4.136 3.196-7.426 3.196-9.776 0-1.504-.376-2.914-.846-3.854-.94-1.692-2.068-2.35-3.572-.282-5.828 7.896-21.338 36.096-25.85 47.564-.94 2.538-.94 4.042-.282 5.734.376 1.034 1.598 2.726 2.538 4.042 1.316 1.88 2.538 1.88 5.264 1.222 5.358-1.41 15.416-3.76 19.834-3.666 2.162 0 2.35-.94 1.88-2.068-1.222-2.914-3.948-4.888-9.118-4.512-3.384.282-7.896.94-12.502 2.068 5.17-10.998 11.28-21.526 19.458-36.472z" fill="#fff" fill-rule="nonzero" stroke="#8c8c8c"/><path d="M821.114 180.507c-5.452 10.434-12.126 16.45-17.296 16.45-3.384 0-6.956-3.572-6.956-11.656 0-5.64 1.786-13.348 5.922-20.022 7.802-12.596 21.15-20.774 23.406-18.33 1.128 1.222 0 4.23-1.316 7.52-.564 1.41-1.222 2.914-1.598 4.324-.376 1.222-.564 2.35-.564 3.478 0 2.726 1.316 4.794 3.196 6.016 1.88 1.128 3.196.188 3.666-1.41.658-2.068 1.974-5.264 3.572-8.46.94-1.88 1.316-3.76 1.316-5.452 0-3.666-2.444-7.332-5.64-10.152-1.598-1.316-3.76-1.974-6.11-1.974-2.35 0-4.982.658-7.426 1.598-10.622 4.794-27.448 21.808-27.072 40.796.188 7.708 4.042 13.63 8.46 15.98 2.35 1.316 5.17 1.974 8.272 1.974 4.042 0 8.272-1.128 12.126-3.854 3.384-2.538 8.46-7.99 8.46-13.442a7.68 7.68 0 0 0-.658-3.102c-.94-2.162-3.102-1.598-3.76-.282z" fill="#fff" fill-rule="nonzero" stroke="#8c8c8c"/></svg>