<?xml version="1.0" encoding="UTF-8" standalone="no"?><!DOCTYPE svg PUBLIC "-//W3C//DTD SVG 1.1//EN" "http://www.w3.org/Graphics/SVG/1.1/DTD/svg11.dtd"><svg width="100%" height="100%" viewBox="0 0 3100 3100" version="1.1" xmlns="http://www.w3.org/2000/svg" xmlns:xlink="http://www.w3.org/1999/xlink" xml:space="preserve" style="fill-rule:evenodd;clip-rule:evenodd;stroke-linejoin:round;stroke-miterlimit:1.41421;"><g id="Text"><path id="Raja" d="M1100,1188l0,-193l910,0l0,385l-455,0l-455,0l0,-192Zm536,158c16,-12 20,-29 23,-106l3,-92l-28,4l-27,3l2,81c2,63 -1,83 -13,94c-35,28 2,43 40,16Zm-326,-61c0,-8 -4,-15 -10,-15c-5,0 -10,-14 -10,-31c0,-27 3,-30 27,-27c21,2 29,10 36,38c10,41 6,36 36,45c22,7 23,5 17,-21c-4,-16 -14,-42 -22,-58c-10,-20 -11,-33 -4,-40c14,-14 13,-59 -2,-74c-15,-15 -144,-16 -153,-2c-3,6 -1,10 4,10c14,0 15,157 1,165c-20,12 1,25 41,25c28,0 39,-4 39,-15Zm201,5c13,-7 19,-7 19,0c0,5 11,10 25,10c23,0 24,-2 18,-52c-10,-89 -16,-98 -66,-98c-40,0 -67,13 -67,32c0,4 7,8 15,8c8,0 15,-4 15,-10c0,-5 11,-10 25,-10c36,0 34,37 -2,46c-29,7 -63,31 -63,45c0,13 31,39 46,39c9,0 24,-5 35,-10Zm249,0c13,-7 21,-7 25,0c3,5 14,10 25,10c16,0 18,-7 13,-62c-7,-85 -27,-106 -82,-89c-40,12 -58,27 -47,39c4,3 16,1 26,-6c26,-16 47,-15 54,3c5,15 -21,35 -47,35c-8,0 -21,8 -30,18c-15,16 -15,20 -1,40c17,24 35,27 64,12Zm-100,-200c0,-5 -9,-10 -19,-10c-11,0 -23,5 -26,10c-4,6 5,10 19,10c14,0 26,-4 26,-10Z" style="fill:#e3ac40;fill-rule:nonzero;"/><path id="R-gap" d="M1290,1150c0,-28 3,-31 28,-28c21,2 27,8 27,28c0,20 -6,26 -27,28c-25,3 -28,0 -28,-28Z" style="fill:#e3ac40;fill-rule:nonzero;"/><path id="A-gap" d="M1487,1264c-14,-15 -6,-34 14,-34c14,0 19,5 17,17c-3,18 -20,27 -31,17Z" style="fill:#e3ac40;fill-rule:nonzero;"/><path id="Last-A-gap" d="M1737,1263c-16,-15 -6,-33 18,-33c27,0 32,9 13,28c-14,14 -22,15 -31,5Z" style="fill:#e3ac40;fill-rule:nonzero;"/></g><g id="Body-Colours"><path id="Body-Paint" d="M713,2054c-12,-31 3,-228 20,-260c24,-46 82,-92 124,-99c21,-4 48,-10 60,-15l23,-9l2,-433l3,-433l1220,0l3,433l2,433l23,9c12,5 39,11 60,15c26,4 52,19 81,48c53,51 68,109 64,238l-3,84l-227,3l-228,2l0,-238c0,-172 -3,-241 -12,-250c-17,-17 -729,-17 -746,0c-9,9 -12,78 -12,250l0,238l-225,0c-195,0 -226,-2 -232,-16Zm377,-43c13,-25 13,-167 0,-192c-10,-17 -22,-19 -143,-19c-90,0 -137,4 -145,12c-16,16 -16,190 0,206c8,8 55,12 145,12c121,0 133,-2 143,-19Zm1218,7c16,-16 16,-190 0,-206c-8,-8 -55,-12 -145,-12c-156,0 -153,-2 -153,115c0,117 -3,115 153,115c90,0 137,-4 145,-12Zm-237,-568c18,-10 19,-24 19,-258c0,-180 -3,-251 -12,-260c-17,-17 -1029,-17 -1046,0c-9,9 -12,80 -12,260c0,225 2,248 18,257c24,14 1006,15 1033,1Z" style="fill:#ec87a6;fill-rule:nonzero;"/><path id="Left-Mirror-Body" d="M712,1168l3,-133l150,0l3,133l3,132l-81,0l-81,0l3,-132Z" style="fill:#ec87a6;fill-rule:nonzero;"/><path id="Right-Mirror-Body" d="M2242,1168l3,-133l150,0l3,133l3,132l-81,0l-81,0l3,-132Z" style="fill:#ec87a6;fill-rule:nonzero;"/></g><g id="Decals"><path id="Left-Tire" d="M792,2493l3,-38l260,0l3,38l3,37l-136,0l-136,0l3,-37Z" style="fill:#d8d8d8;fill-rule:nonzero;"/><path id="Right-Tire" d="M2052,2493l3,-38l260,0l3,38l3,37l-136,0l-136,0l3,-37Z" style="fill:#d8d8d8;fill-rule:nonzero;"/><path id="Bumper" d="M574,2362c-18,-18 -20,-182 -2,-200c17,-17 1949,-17 1966,0c14,14 16,176 2,198c-8,13 -129,15 -981,16c-815,0 -974,-2 -985,-14Z" style="fill:#d8d8d8;fill-rule:nonzero;"/><path id="Grill" d="M1250,1860l0,-210l610,0l0,420l-305,0l-305,0l0,-210Zm500,55l0,-35l-195,0l-195,0l0,70l390,0l0,-35Zm-2,-152l-3,-38l-190,0l-190,0l-3,23c-8,52 -7,52 198,52l191,0l-3,-37Z" style="fill:#d8d8d8;fill-rule:nonzero;"/><path id="Left-Light" d="M870,1915l0,-35l150,0l0,70l-75,0l-75,0l0,-35Z" style="fill:#d8d8d8;fill-rule:nonzero;"/><path id="Right-Light" d="M2090,1915l0,-35l150,0l0,70l-75,0l-75,0l0,-35Z" style="fill:#d8d8d8;fill-rule:nonzero;"/></g><g id="Outline"><path id="Body-Outline" d="M710,2591c-5,-11 -10,-45 -10,-75l0,-56l-65,0c-39,0 -78,-6 -95,-15c-53,-28 -60,-48 -60,-183c0,-68 4,-132 10,-142c15,-28 73,-60 109,-60l31,0l0,-122c0,-108 3,-129 24,-173c27,-60 100,-127 162,-151l44,-17l0,-103l0,-104l-96,0c-143,0 -134,15 -134,-218c0,-141 3,-201 12,-210c8,-8 48,-12 115,-12l103,0l0,-230l0,-230l90,0l0,230l638,0c483,0 641,3 650,12c8,8 12,48 12,115l0,103l103,0c67,0 107,4 115,12c9,9 12,69 12,210c0,233 9,218 -134,218l-96,0l0,207l44,17c62,24 135,91 162,151c21,44 24,65 24,173l0,122l31,0c36,0 94,32 109,60c6,10 10,74 10,142c0,135 -7,155 -60,183c-17,9 -56,15 -95,15l-65,0l0,56c0,98 9,94 -224,94c-232,0 -216,7 -216,-91l0,-59l-415,0l-415,0l0,59c0,98 16,91 -216,91c-191,0 -204,-1 -214,-19Zm348,-98l-3,-38l-130,0l-130,0l-3,38l-3,37l272,0l-3,-37Zm1260,0l-3,-38l-130,0l-130,0l-3,38l-3,37l272,0l-3,-37Zm222,-133c14,-22 12,-184 -2,-198c-17,-17 -1949,-17 -1966,0c-18,18 -16,182 2,200c11,12 170,14 985,14c852,-1 973,-3 981,-16Zm-1370,-528c0,-172 3,-241 12,-250c17,-17 729,-17 746,0c9,9 12,78 12,250l0,238l228,-2l227,-3l3,-84c4,-129 -11,-187 -64,-238c-29,-29 -55,-44 -81,-48c-21,-4 -48,-10 -60,-15l-23,-9l-2,-433l-3,-433l-610,0l-610,0l-3,433l-2,433l-23,9c-12,5 -39,11 -60,15c-42,7 -100,53 -124,99c-17,32 -32,229 -20,260c6,14 37,16 232,16l225,0l0,-238Zm690,28l0,-210l-305,0l-305,0l0,420l610,0l0,-210Zm-992,-692l-3,-133l-75,0l-75,0l-3,133l-3,132l162,0l-3,-132Zm1530,0l-3,-133l-75,0l-75,0l-3,133l-3,132l162,0l-3,-132Z" style="fill:#2f4d54;fill-rule:nonzero;"/><path id="Left-Headlight-Outline" d="M802,2018c-16,-16 -16,-190 0,-206c8,-8 55,-12 145,-12c156,0 153,-2 153,115c0,117 3,115 -153,115c-90,0 -137,-4 -145,-12Zm218,-103l0,-35l-75,0l-75,0l0,70l150,0l0,-35Z" style="fill:#2f4d54;fill-rule:nonzero;"/><path id="Right-Headlight-Outline" d="M2020,2011c-5,-11 -10,-54 -10,-96c0,-117 -3,-115 153,-115c90,0 137,4 145,12c16,16 16,190 0,206c-8,8 -55,12 -145,12c-121,0 -133,-2 -143,-19Zm220,-96l0,-35l-75,0l-75,0l0,70l150,0l0,-35Z" style="fill:#2f4d54;fill-rule:nonzero;"/><path id="Windshield-Outline" d="M1038,1449c-16,-9 -18,-32 -18,-257c0,-180 3,-251 12,-260c17,-17 1029,-17 1046,0c9,9 12,80 12,260c0,234 -1,248 -19,258c-27,14 -1009,13 -1033,-1Zm972,-261l0,-193l-455,0l-455,0l0,385l910,0l0,-192Z" style="fill:#2f4d54;fill-rule:nonzero;"/><path id="_-J--" d="M1580,1351c0,-5 7,-14 16,-21c12,-11 15,-31 13,-94l-2,-81l27,-3l28,-4l-3,92c-3,77 -7,94 -23,106c-22,16 -56,19 -56,5Z" style="fill:#2f4d54;fill-rule:nonzero;"/><path id="_-R-" d="M1225,1291c-3,-5 -1,-12 5,-16c14,-8 13,-165 -1,-165c-5,0 -7,-4 -4,-10c9,-14 138,-13 153,2c15,15 16,60 2,74c-7,7 -6,20 4,40c8,16 18,42 22,58c6,26 5,28 -17,21c-30,-9 -26,-4 -36,-45c-7,-28 -15,-36 -36,-38c-24,-3 -27,0 -27,27c0,17 5,31 10,31c6,0 10,7 10,15c0,11 -11,15 -39,15c-22,0 -42,-4 -46,-9Zm120,-141c0,-20 -6,-26 -27,-28c-25,-3 -28,0 -28,28c0,28 3,31 28,28c21,-2 27,-8 27,-28Z" style="fill:#2f4d54;fill-rule:nonzero;"/><path id="_1st--a-" d="M1446,1284c-9,-8 -16,-19 -16,-23c0,-14 34,-38 63,-45c36,-9 38,-46 2,-46c-14,0 -25,5 -25,10c0,6 -7,10 -15,10c-8,0 -15,-4 -15,-8c0,-19 27,-32 67,-32c50,0 56,9 66,98c6,50 5,52 -18,52c-14,0 -25,-5 -25,-10c0,-7 -6,-7 -19,0c-27,14 -47,13 -65,-6Zm72,-37c2,-12 -3,-17 -17,-17c-12,0 -21,6 -21,13c0,31 32,34 38,4Z" style="fill:#2f4d54;fill-rule:nonzero;"/><path id="_2nd--a-" d="M1696,1278c-14,-20 -14,-24 1,-40c9,-10 22,-18 30,-18c26,0 52,-20 47,-35c-7,-18 -28,-19 -54,-3c-10,7 -22,9 -26,6c-11,-12 7,-27 47,-39c55,-17 75,4 82,89c5,55 3,62 -13,62c-11,0 -22,-5 -25,-10c-4,-7 -12,-7 -25,0c-29,15 -47,12 -64,-12Zm72,-20c19,-19 14,-28 -13,-28c-24,0 -34,18 -18,33c9,10 17,9 31,-5Z" style="fill:#2f4d54;fill-rule:nonzero;"/><path id="_-J--dot" d="M1615,1090c3,-5 15,-10 26,-10c10,0 19,5 19,10c0,6 -12,10 -26,10c-14,0 -23,-4 -19,-10Z" style="fill:#2f4d54;fill-rule:nonzero;"/><path id="Bottom-Grill-BG" d="M1360,1915l0,-35l390,0l0,70l-195,0l-195,0l0,-35Z" style="fill:#2f4d54;fill-rule:nonzero;"/><path id="Top-Grill-BG" d="M1364,1786c-3,-8 -4,-25 -2,-38l3,-23l380,0l3,38l3,37l-191,0c-156,0 -192,-3 -196,-14Z" style="fill:#2f4d54;fill-rule:nonzero;"/></g></svg>